<?xml version="1.0" encoding="UTF-8"?>
<svg version="1.1" xmlns="http://www.w3.org/2000/svg" width="1536" height="1024">
<path d="M0 0 C506.88 0 1013.76 0 1536 0 C1536 337.92 1536 675.84 1536 1024 C1029.12 1024 522.24 1024 0 1024 C0 686.08 0 348.16 0 0 Z " fill="#FCFDFD" transform="translate(0,0)"/>
<path d="M0 0 C1.4462824 -0.00599111 2.89256161 -0.012798 4.33883667 -0.02035522 C8.25454378 -0.03796955 12.17016337 -0.04270885 16.08590627 -0.0439868 C18.53857208 -0.04541228 20.99121593 -0.04968954 23.44387627 -0.05498123 C32.01875077 -0.07347096 40.59356325 -0.08165374 49.16845703 -0.08007812 C57.13061603 -0.0788791 65.09250292 -0.0999371 73.05459315 -0.13156545 C79.9135079 -0.15782936 86.77233439 -0.16844111 93.63129896 -0.16716731 C97.71739652 -0.16666036 101.80325243 -0.17219341 105.88929939 -0.19352341 C109.73984524 -0.21307558 113.58992329 -0.21291623 117.44048691 -0.19849014 C118.84238186 -0.19642132 120.24430741 -0.20098588 121.64615059 -0.21321106 C140.31611596 -0.36529143 155.24724204 5.31757617 168.81225586 17.91552734 C177.84219976 27.15919773 182.85366713 38.57971288 182.89019775 51.42501831 C182.8959079 52.6333432 182.90161804 53.84166809 182.90750122 55.08660889 C182.90917801 57.05515839 182.90917801 57.05515839 182.91088867 59.06347656 C182.91552182 60.47008391 182.92054714 61.87669001 182.92593384 63.28329468 C182.93900944 67.09327192 182.94549296 70.90323159 182.9499445 74.71322775 C182.95288222 77.09631808 182.95698827 79.47940367 182.96144867 81.86249161 C182.975109 89.32691228 182.98478359 96.79132205 182.98865056 104.25575435 C182.99313202 112.85754039 183.01069007 121.45916759 183.03965116 130.06090534 C183.06129301 136.72097212 183.07135613 143.38099429 183.07269168 150.04109585 C183.07373764 154.01408136 183.07960113 157.98691724 183.09751129 161.95986557 C183.11403611 165.69786243 183.11612627 169.43559786 183.10737228 173.17361832 C183.10623968 175.19022783 183.11992166 177.20682885 183.13412476 179.22338867 C183.10306538 185.99371544 182.63909514 191.14267509 179.74975586 197.29052734 C179.39655273 198.15419922 179.04334961 199.01787109 178.67944336 199.90771484 C172.17399931 213.83418396 160.00535544 223.88154556 145.74975586 229.29052734 C137.24942855 231.40551292 128.85122605 231.58839402 120.13720703 231.58105469 C118.70018673 231.58705307 117.26316961 231.59386158 115.82615662 231.60140991 C111.95407309 231.61894228 108.08207818 231.6237598 104.20995879 231.62504148 C101.78273286 231.62647073 99.35552892 231.6307548 96.92830849 231.63603592 C88.43770563 231.65449277 79.94716522 231.66271185 71.45654297 231.66113281 C63.57836912 231.65993205 55.7004695 231.68103281 47.82236499 231.71262014 C41.02706322 231.73888198 34.23185051 231.749496 27.43649846 231.74822199 C23.39181897 231.74771534 19.34738367 231.75323285 15.30275536 231.77457809 C11.49483517 231.79412919 7.68738801 231.7939717 3.87944984 231.77954483 C1.84018244 231.77650106 -0.1990859 231.79301339 -2.23828125 231.8104248 C-19.27376659 231.69597235 -32.57435847 226.30003225 -44.92602539 214.70458984 C-51.54514911 207.82960084 -55.67318199 200.46291443 -58.25024414 191.29052734 C-58.50186955 190.39896832 -58.50186955 190.39896832 -58.7585783 189.489398 C-60.46152206 182.77192991 -60.5393943 176.27601565 -60.52490234 169.3737793 C-60.53001328 168.10748184 -60.53512421 166.84118439 -60.54039001 165.53651428 C-60.55369683 162.08577424 -60.55436772 158.6351443 -60.55182672 155.18438363 C-60.55075068 152.28983546 -60.55565677 149.39530899 -60.56043214 146.5007655 C-60.57149998 139.66187051 -60.57198102 132.82303045 -60.56591797 125.98413086 C-60.55988894 118.96377107 -60.57216811 111.94361225 -60.59348804 104.92328674 C-60.61119436 98.86687276 -60.61709101 92.8105222 -60.6138503 86.75408334 C-60.61205058 83.14984077 -60.61454004 79.54574137 -60.62856483 75.9415226 C-60.64365834 71.91230188 -60.63409483 67.88348062 -60.62255859 63.85424805 C-60.63020233 62.68442383 -60.63784607 61.51459961 -60.64572144 60.30932617 C-60.54386351 44.09022481 -56.6161507 29.15199991 -45.25024414 17.12646484 C-38.12871119 10.58912014 -30.30939666 5.66807265 -21.25024414 2.29052734 C-20.33340347 1.94573334 -19.41656281 1.60093933 -18.47193909 1.24569702 C-12.47525603 -0.42888151 -6.17378463 -0.00510677 0 0 Z " fill="#FBFCFC" transform="translate(384.250244140625,351.70947265625)"/>
<path d="M0 0 C7.59 0 15.18 0 23 0 C28.45658251 16.78948463 32.37512949 34.03481681 36.35131836 51.22460938 C36.53960205 52.02962891 36.72788574 52.83464844 36.921875 53.6640625 C37.16309082 54.70747803 37.16309082 54.70747803 37.40917969 55.77197266 C38.14835583 58.55946087 39.06766804 61.27183072 40 64 C43.98727919 50.05146559 47.48460398 36.01501017 50.85131836 21.90551758 C51.49544797 19.21099972 52.14403576 16.51758311 52.79296875 13.82421875 C52.9856987 13.00966721 53.17842865 12.19511566 53.3769989 11.35588074 C53.5609169 10.59350601 53.7448349 9.83113129 53.93432617 9.0456543 C54.09245285 8.38268845 54.25057953 7.7197226 54.41349792 7.03666687 C55.10503394 4.63526276 56.07189747 2.32025633 57 0 C63.93 0 70.86 0 78 0 C81.3707413 8.98864348 81.3707413 8.98864348 82.54296875 13.66796875 C82.80835449 14.71291504 83.07374023 15.75786133 83.34716797 16.83447266 C83.76313232 18.49422119 83.76313232 18.49422119 84.1875 20.1875 C86.65779129 29.87325203 89.19143158 39.53719925 91.8397522 49.1756897 C92.3698578 51.10627272 92.89625113 53.03787382 93.42260742 54.96948242 C93.74463135 56.13713135 94.06665527 57.30478027 94.3984375 58.5078125 C94.82648682 60.06459717 94.82648682 60.06459717 95.26318359 61.65283203 C95.78066872 63.93495651 95.78066872 63.93495651 97 65 C97.24121582 63.98969727 97.24121582 63.98969727 97.48730469 62.95898438 C100.40989877 50.72661486 103.34192036 38.49851699 106.41992188 26.30419922 C107.70374011 21.2045879 108.97529628 16.10189552 110.25 11 C111.1575 7.37 112.065 3.74 113 0 C120.92 0 128.84 0 137 0 C134.26563202 12.30465592 130.9252525 24.36007508 127.34765625 36.4375 C123.35460986 49.92982453 119.54291776 63.45601368 116.09204102 77.09814453 C112.0391113 92.9608887 112.0391113 92.9608887 110 95 C108.07332493 95.08748207 106.14348139 95.10697334 104.21484375 95.09765625 C102.46010742 95.09282227 102.46010742 95.09282227 100.66992188 95.08789062 C99.43822266 95.07951172 98.20652344 95.07113281 96.9375 95.0625 C95.08415039 95.05573242 95.08415039 95.05573242 93.19335938 95.04882812 C90.12885883 95.03699608 87.06445279 95.02051173 84 95 C80.86680805 86.21534968 78.75108388 77.20901236 76.55493164 68.15820312 C76.05148766 66.08905563 75.54458302 64.02080741 75.03515625 61.953125 C74.8699649 61.28124146 74.70477356 60.60935791 74.53457642 59.91711426 C73.16704466 54.45362695 71.51641992 49.10358731 69.73217773 43.76074219 C69.01051014 41.03962942 68.85708898 38.79939349 69 36 C68.34 36 67.68 36 67 36 C66.82748718 36.90137947 66.82748718 36.90137947 66.65148926 37.82096863 C65.43161643 44.07115654 64.01455367 50.24885569 62.46875 56.42578125 C62.23216675 57.37639938 61.9955835 58.32701752 61.75183105 59.30644226 C61.25550475 61.29744708 60.75797274 63.28815171 60.25927734 65.27856445 C59.49794417 68.32071473 58.74292981 71.36438865 57.98828125 74.40820312 C57.5029854 76.35165774 57.01732126 78.29502043 56.53125 80.23828125 C56.30723511 81.14355057 56.08322021 82.04881989 55.85241699 82.98152161 C55.53198425 84.25390938 55.53198425 84.25390938 55.20507812 85.55200195 C55.02013794 86.29239212 54.83519775 87.03278229 54.64465332 87.79560852 C53.92661887 90.25092671 52.9500752 92.62481201 52 95 C43.42 95 34.84 95 26 95 C21.84135565 83.99182377 18.6899465 72.86296303 15.66699219 61.49560547 C13.45195935 53.20788013 11.00475867 44.99528269 8.48022461 36.79760742 C5.87170551 28.31280746 3.31578482 19.81998485 1 11.25 C0.67044312 10.06241089 0.67044312 10.06241089 0.33422852 8.85083008 C-1.11842445 3.35527334 -1.11842445 3.35527334 0 0 Z " fill="#222222" transform="translate(597,385)"/>
<path d="M0 0 C55.36619718 0 55.36619718 0 66.39453125 10.21875 C74.0219527 18.46461102 74.71180947 25.2989951 74.4375 36.17578125 C73.91448635 44.55217166 70.31799147 51.10640586 64.375 56.9375 C54.75191962 64.50642284 43.96007754 66.17745305 32.125 66.0625 C29.11375 66.041875 26.1025 66.02125 23 66 C23 75.57 23 85.14 23 95 C15.41 95 7.82 95 0 95 C0 63.65 0 32.3 0 0 Z " fill="#222221" transform="translate(951,385)"/>
<path d="M0 0 C8.7390908 5.35572752 14.50977122 12.46268978 17.8828125 22.20703125 C19.93402945 34.33976128 18.5314516 45.29897121 11.74609375 55.6796875 C5.68013131 63.44119606 -3.2006641 67.85962479 -12.8671875 69.1953125 C-24.25171189 69.92034319 -35.95411905 68.08058574 -45.1875 60.93359375 C-48.29702676 57.83961462 -50.5649036 54.16054367 -52.75 50.37890625 C-53.11480469 49.77175781 -53.47960937 49.16460937 -53.85546875 48.5390625 C-57.35955681 40.07722538 -57.33418067 26.67063582 -54.3125 18.00390625 C-50.24669555 9.43822569 -42.96139401 2.02987503 -34.2421875 -1.69140625 C-24.08316837 -4.3959326 -9.61715816 -4.42327627 0 0 Z " fill="#232323" transform="translate(922.75,413.62109375)"/>
<path d="M0 0 C1.4462824 -0.00599111 2.89256161 -0.012798 4.33883667 -0.02035522 C8.25454378 -0.03796955 12.17016337 -0.04270885 16.08590627 -0.0439868 C18.53857208 -0.04541228 20.99121593 -0.04968954 23.44387627 -0.05498123 C32.01875077 -0.07347096 40.59356325 -0.08165374 49.16845703 -0.08007812 C57.13061603 -0.0788791 65.09250292 -0.0999371 73.05459315 -0.13156545 C79.9135079 -0.15782936 86.77233439 -0.16844111 93.63129896 -0.16716731 C97.71739652 -0.16666036 101.80325243 -0.17219341 105.88929939 -0.19352341 C109.73984524 -0.21307558 113.58992329 -0.21291623 117.44048691 -0.19849014 C118.84238186 -0.19642132 120.24430741 -0.20098588 121.64615059 -0.21321106 C140.31611596 -0.36529143 155.24724204 5.31757617 168.81225586 17.91552734 C177.84219976 27.15919773 182.85366713 38.57971288 182.89019775 51.42501831 C182.8959079 52.6333432 182.90161804 53.84166809 182.90750122 55.08660889 C182.90917801 57.05515839 182.90917801 57.05515839 182.91088867 59.06347656 C182.91552182 60.47008391 182.92054714 61.87669001 182.92593384 63.28329468 C182.93900944 67.09327192 182.94549296 70.90323159 182.9499445 74.71322775 C182.95288222 77.09631808 182.95698827 79.47940367 182.96144867 81.86249161 C182.975109 89.32691228 182.98478359 96.79132205 182.98865056 104.25575435 C182.99313202 112.85754039 183.01069007 121.45916759 183.03965116 130.06090534 C183.06129301 136.72097212 183.07135613 143.38099429 183.07269168 150.04109585 C183.07373764 154.01408136 183.07960113 157.98691724 183.09751129 161.95986557 C183.11403611 165.69786243 183.11612627 169.43559786 183.10737228 173.17361832 C183.10623968 175.19022783 183.11992166 177.20682885 183.13412476 179.22338867 C183.10306538 185.99371544 182.63909514 191.14267509 179.74975586 197.29052734 C179.39655273 198.15419922 179.04334961 199.01787109 178.67944336 199.90771484 C172.17399931 213.83418396 160.00535544 223.88154556 145.74975586 229.29052734 C137.24942855 231.40551292 128.85122605 231.58839402 120.13720703 231.58105469 C118.70018673 231.58705307 117.26316961 231.59386158 115.82615662 231.60140991 C111.95407309 231.61894228 108.08207818 231.6237598 104.20995879 231.62504148 C101.78273286 231.62647073 99.35552892 231.6307548 96.92830849 231.63603592 C88.43770563 231.65449277 79.94716522 231.66271185 71.45654297 231.66113281 C63.57836912 231.65993205 55.7004695 231.68103281 47.82236499 231.71262014 C41.02706322 231.73888198 34.23185051 231.749496 27.43649846 231.74822199 C23.39181897 231.74771534 19.34738367 231.75323285 15.30275536 231.77457809 C11.49483517 231.79412919 7.68738801 231.7939717 3.87944984 231.77954483 C1.84018244 231.77650106 -0.1990859 231.79301339 -2.23828125 231.8104248 C-19.27376659 231.69597235 -32.57435847 226.30003225 -44.92602539 214.70458984 C-51.54514911 207.82960084 -55.67318199 200.46291443 -58.25024414 191.29052734 C-58.50186955 190.39896832 -58.50186955 190.39896832 -58.7585783 189.489398 C-60.46152206 182.77192991 -60.5393943 176.27601565 -60.52490234 169.3737793 C-60.53001328 168.10748184 -60.53512421 166.84118439 -60.54039001 165.53651428 C-60.55369683 162.08577424 -60.55436772 158.6351443 -60.55182672 155.18438363 C-60.55075068 152.28983546 -60.55565677 149.39530899 -60.56043214 146.5007655 C-60.57149998 139.66187051 -60.57198102 132.82303045 -60.56591797 125.98413086 C-60.55988894 118.96377107 -60.57216811 111.94361225 -60.59348804 104.92328674 C-60.61119436 98.86687276 -60.61709101 92.8105222 -60.6138503 86.75408334 C-60.61205058 83.14984077 -60.61454004 79.54574137 -60.62856483 75.9415226 C-60.64365834 71.91230188 -60.63409483 67.88348062 -60.62255859 63.85424805 C-60.63020233 62.68442383 -60.63784607 61.51459961 -60.64572144 60.30932617 C-60.54386351 44.09022481 -56.6161507 29.15199991 -45.25024414 17.12646484 C-38.12871119 10.58912014 -30.30939666 5.66807265 -21.25024414 2.29052734 C-20.33340347 1.94573334 -19.41656281 1.60093933 -18.47193909 1.24569702 C-12.47525603 -0.42888151 -6.17378463 -0.00510677 0 0 Z M-43.25024414 22.29052734 C-53.08337918 35.27805421 -55.40157749 47.08807135 -55.39550781 62.96777344 C-55.39886642 64.23205673 -55.40222504 65.49634003 -55.40568542 66.79893494 C-55.41448127 70.25149883 -55.41686165 73.7040379 -55.41750121 77.15661192 C-55.41821414 79.31776528 -55.42035305 81.47891243 -55.42299843 83.64006424 C-55.43223675 91.19119921 -55.43633515 98.74231659 -55.43554688 106.29345703 C-55.43494627 113.31382827 -55.44549864 120.33412263 -55.46129054 127.35447443 C-55.47439703 133.39802197 -55.47972948 139.44154448 -55.47909147 145.48510611 C-55.47883742 149.08751422 -55.48163674 152.68985392 -55.49226952 156.29224777 C-55.50381453 160.3130488 -55.4991847 164.33367907 -55.49316406 168.35449219 C-55.49878357 169.53608414 -55.50440308 170.71767609 -55.51019287 171.93507385 C-55.45066343 187.61061082 -50.82177615 201.36716006 -40.00024414 212.97802734 C-28.48603444 223.86235686 -14.80607118 226.90852701 0.59936523 226.79223633 C2.04963198 226.79602919 3.49989508 226.80153714 4.95014954 226.80860901 C8.85316986 226.82245511 12.75574399 226.81147114 16.65873909 226.79489779 C20.76504905 226.78093888 24.87133593 226.78751962 28.97766113 226.79103088 C35.87035216 226.79372451 42.76286821 226.78033074 49.65551758 226.75708008 C57.59677738 226.73047569 65.53774485 226.72872643 73.47903395 226.74046844 C81.15385097 226.75129003 88.82856343 226.74502493 96.50337219 226.73091316 C99.75346889 226.72519121 103.0034881 226.7252059 106.25358582 226.72997856 C110.08857204 226.73479095 113.92324281 226.72447272 117.75816917 226.70302391 C119.1560529 226.69751335 120.5539673 226.6969372 121.9518528 226.70197678 C138.56413699 226.75430558 152.26114926 223.2914416 164.49584961 211.66943359 C174.72803219 200.86978161 178.51687797 188.60091229 178.36499023 173.9440918 C178.36850069 172.54806852 178.37416962 171.15204929 178.38180542 169.75604248 C178.39592683 166.00186465 178.37912054 162.24843041 178.35552025 158.49432397 C178.33525658 154.54677269 178.3412986 150.59924765 178.34362793 146.6516571 C178.34357454 140.02879731 178.32392466 133.40622458 178.29174805 126.78344727 C178.25481755 119.14544825 178.24608076 111.50782412 178.25304556 103.86974746 C178.2593663 96.492843 178.2485702 89.11606595 178.2290802 81.73918724 C178.22094267 78.6122168 178.21818986 75.4853118 178.21977234 72.35833168 C178.22065601 68.67353349 178.20630671 64.98908749 178.18054581 61.30438232 C178.17005573 59.320274 178.17403662 57.33610539 178.17855835 55.35197449 C178.11299939 48.43058832 177.48993454 42.66875953 174.74975586 36.29052734 C174.33061543 35.25681991 174.33061543 35.25681991 173.90300751 34.2022295 C169.54481166 23.84672923 159.50787117 14.22056608 149.28100586 9.78662109 C141.66140142 6.97729215 134.74364096 5.17317543 126.5974884 5.15008545 C125.38508484 5.14437531 124.17268127 5.13866516 122.92353821 5.13278198 C121.60653427 5.13166412 120.28953033 5.13054626 118.93261719 5.12939453 C117.52102531 5.12476129 116.10943467 5.11973595 114.69784546 5.11434937 C110.87320444 5.10127113 107.04858093 5.09478924 103.22392106 5.09033871 C100.83008673 5.08740026 98.4362571 5.08329399 96.04242516 5.07883453 C88.54008883 5.06517095 81.03776337 5.05549902 73.53541547 5.05163264 C64.8985693 5.04715614 56.26188172 5.02962245 47.62508374 5.00063205 C40.93354785 4.97895709 34.24205639 4.96892525 27.55048579 4.96759152 C23.56119626 4.96654755 19.57205604 4.96072724 15.58280373 4.94277191 C11.82592021 4.9261905 8.06929663 4.92418402 4.31238937 4.93291092 C2.29277899 4.93403799 0.27317683 4.92039829 -1.74638367 4.90615845 C-17.96199979 4.97978833 -32.12657469 10.11547137 -43.25024414 22.29052734 Z " fill="#232323" transform="translate(384.250244140625,351.70947265625)"/>
<path d="M0 0 C0.97259766 -0.01998047 1.94519531 -0.03996094 2.94726562 -0.06054688 C11.59697308 -0.05476885 19.00629973 1.82143147 25.5 7.75 C30.80585249 13.58019556 32.69752204 20.42450012 32.67602539 28.2277832 C32.67591209 29.60864861 32.67591209 29.60864861 32.67579651 31.01741028 C32.67063522 31.9977977 32.66547394 32.97818512 32.66015625 33.98828125 C32.6587413 35.00222458 32.65732635 36.01616791 32.65586853 37.06083679 C32.65028328 40.29058821 32.63773345 43.52026962 32.625 46.75 C32.6199831 48.94335837 32.61542052 51.13671783 32.61132812 53.33007812 C32.60117075 58.69926725 32.58159236 64.0683055 32.5625 69.4375 C25.9625 69.4375 19.3625 69.4375 12.5625 69.4375 C12.5625 66.7975 12.5625 64.1575 12.5625 61.4375 C11.9025 61.4375 11.2425 61.4375 10.5625 61.4375 C10.35625 62.015 10.15 62.5925 9.9375 63.1875 C6.95984541 68.06002569 1.85219133 69.9519945 -3.4375 71.4375 C-11.96045497 72.14861771 -20.16726777 72.17234536 -27.1875 66.8125 C-32.14977629 62.19591038 -33.54029511 57.07795101 -33.9375 50.4375 C-33.73067725 45.04356263 -32.09927883 41.38747439 -28.4375 37.4375 C-16.69894082 27.72729479 -3.83019381 28.28029825 10.5625 28.4375 C10.33292223 26.9965974 10.07793646 25.55972985 9.8125 24.125 C9.67328125 23.32449219 9.5340625 22.52398437 9.390625 21.69921875 C8.32350048 18.78476076 7.2716217 17.92073243 4.5625 16.4375 C0.83564453 15.77099828 -2.70281351 15.82888442 -6.4375 16.4375 C-9.33433868 18.6390974 -10.83047231 20.22344462 -12.4375 23.4375 C-18.3775 23.4375 -24.3175 23.4375 -30.4375 23.4375 C-30.4375 12.63309902 -30.4375 12.63309902 -26.83984375 8.68359375 C-18.90430441 1.1266885 -10.68332199 -0.07756867 0 0 Z " fill="#242424" transform="translate(762.4375,410.5625)"/>
<path d="M0 0 C4.30773628 0.02450581 8.6154315 0.04022251 12.92321777 0.05310059 C43.47119317 0.16108491 73.93978283 1.59317616 104.44058228 3.17871475 C107.45856995 3.33534111 110.47665459 3.48998551 113.49475098 3.64450073 C135.10728839 4.75947075 156.68333372 6.13639182 178.24450684 8.00720215 C179.17035206 8.08551081 180.09619728 8.16381947 181.05009842 8.24450111 C190.29718019 9.03464516 199.48291734 9.9813614 208.63757324 11.5279541 C209.36069387 11.64639018 210.08381451 11.76482626 210.82884789 11.88685131 C212.53657524 12.19523542 214.22607451 12.60171032 215.90856934 13.0267334 C216.23856934 13.6867334 216.56856934 14.3467334 216.90856934 15.0267334 C201.28957966 15.43353225 185.90904977 14.87881455 170.34606934 13.6517334 C156.39406373 12.56098438 142.45025165 11.57339833 128.47106934 10.9017334 C127.62660248 10.86115814 126.78213562 10.82058289 125.91207886 10.77877808 C108.54418699 9.96635947 91.16581837 9.62519266 73.78186035 9.36804199 C72.76251907 9.35184311 71.7431778 9.33564423 70.69294739 9.31895447 C68.81058356 9.28958337 66.92816523 9.26340576 65.04570007 9.24147034 C60.14017921 9.16454839 55.28176697 8.91713135 50.39085388 8.52496338 C43.47645384 8.02228527 36.60977768 7.87870987 29.67932129 7.88146973 C28.43580902 7.87811111 27.19229675 7.8747525 25.91110229 7.87129211 C22.52995955 7.86348134 19.14887839 7.86011711 15.76773095 7.85947633 C13.62139338 7.85875611 11.47506186 7.8566031 9.32872581 7.85397911 C1.73936954 7.84473206 -5.84996934 7.84064026 -13.43933105 7.84143066 C-19.58519157 7.84195548 -25.73098712 7.83509643 -31.87683105 7.82092285 C-83.8082545 7.70400007 -135.614364 8.7230735 -187.46643066 11.8392334 C-188.88808127 11.92207253 -190.30975346 12.00454173 -191.73144531 12.08666992 C-208.48409379 13.05541888 -225.22423805 14.15241835 -241.95861816 15.39782715 C-242.7346426 15.45534967 -243.51066704 15.5128722 -244.31020737 15.57213783 C-251.79211253 16.12711991 -259.2732711 16.68900231 -266.7519207 17.28638935 C-314.04787568 21.04851089 -314.04787568 21.04851089 -320.09143066 18.0267334 C-319.59643066 16.5417334 -319.59643066 16.5417334 -319.09143066 15.0267334 C-313.969176 13.17043495 -308.66604784 12.32764916 -303.29455566 11.4954834 C-302.46498352 11.36637573 -301.63541138 11.23726807 -300.78070068 11.10424805 C-292.16081482 9.81321417 -283.5330775 9.11406922 -274.84143066 8.5267334 C-273.12036943 8.40487829 -271.39934168 8.28254957 -269.67834473 8.15979004 C-265.09580562 7.83601517 -260.5125101 7.52467004 -255.92883301 7.21746826 C-253.0779225 7.02582536 -250.22723951 6.83105909 -247.37658691 6.63562012 C-218.96534627 4.69504044 -190.55028708 3.06832263 -162.09143066 2.0267334 C-160.88148438 1.98183777 -159.67153809 1.93694214 -158.42492676 1.89068604 C-105.6171083 -0.04861715 -52.83895154 -0.30613977 0 0 Z " fill="#292828" transform="translate(944.0914306640625,565.9732666015625)"/>
<path d="M0 0 C7.86392007 5.52525862 11.73960742 11.62858698 14 21 C14.15373076 23.6212398 14.21609552 26.24941177 14.1875 28.875 C14.18105469 30.19242187 14.17460938 31.50984375 14.16796875 32.8671875 C14 36 14 36 13 37 C11.61839885 37.0927833 10.23211962 37.11747043 8.84741211 37.11352539 C7.96657455 37.11344986 7.085737 37.11337433 6.1782074 37.11329651 C5.22092239 37.10813522 4.26363739 37.10297394 3.27734375 37.09765625 C2.30213272 37.0962413 1.32692169 37.09482635 0.32215881 37.09336853 C-2.80609143 37.08775133 -5.93427123 37.07519593 -9.0625 37.0625 C-11.17773334 37.05748722 -13.29296781 37.05292393 -15.40820312 37.04882812 C-20.60549296 37.03777631 -25.80274145 37.02102146 -31 37 C-30.57405412 38.44096586 -30.13373367 39.87768712 -29.6875 41.3125 C-29.32205078 42.51326172 -29.32205078 42.51326172 -28.94921875 43.73828125 C-27.41639463 47.39056589 -25.26711639 48.82192241 -22 51 C-14.77626665 53.40791112 -6.32849092 52.94273453 0.625 49.9375 C1.38039063 49.55464844 2.13578125 49.17179687 2.9140625 48.77734375 C5.45071127 47.83203831 6.53595291 47.91231394 9 49 C11.30997001 52.33662334 12.7539858 54.79726391 13.5625 58.75 C13 61 13 61 10.9375 62.625 C-2.14294702 68.74776243 -16.64013912 70.31487873 -30.8984375 67.12890625 C-40.08616715 63.5270328 -46.4733275 57.88059853 -51.08984375 49.2109375 C-54.5775598 40.73863156 -54.50909664 27.66100828 -51.875 18.9375 C-48.29900807 10.41527624 -42.83453138 2.82913077 -34.4140625 -1.25390625 C-23.31975745 -5.52209063 -10.45493785 -6.2692749 0 0 Z " fill="#242323" transform="translate(1079,414)"/>
<path d="M0 0 C1.39230835 0.00241699 1.39230835 0.00241699 2.81274414 0.00488281 C12.5905883 0.17901465 21.00928188 2.30583035 28.8125 8.375 C28.23142368 12.1352985 27.16050504 14.90535032 25.25 18.1875 C24.79496094 18.97769531 24.33992188 19.76789063 23.87109375 20.58203125 C23.34708984 21.46955078 23.34708984 21.46955078 22.8125 22.375 C19.12892885 21.58742131 16.20227591 20.09273171 12.91015625 18.3125 C8.54649271 16.36225931 4.29111751 16.23835316 -0.4375 16.25 C-1.49453125 16.24742187 -2.5515625 16.24484375 -3.640625 16.2421875 C-6.12232251 16.08671462 -6.12232251 16.08671462 -7.1875 17.375 C-7.22830783 19.37458364 -7.23004356 21.37545254 -7.1875 23.375 C-3.92886315 25.3562512 -0.68059522 25.95879031 3.00708008 26.66723633 C12.63349474 28.52820421 22.18428815 30.83101495 29 38.4375 C32.11858023 43.51795071 31.46841474 49.67075274 30.8125 55.375 C29.10685157 60.89327434 25.4532665 64.14081634 20.8125 67.375 C9.38981794 73.18654 -6.32391578 73.20207543 -18.5 69.625 C-22.88308753 68.0596116 -26.55509758 66.28092194 -30.1875 63.375 C-29.60926904 59.31274452 -28.29632263 56.52737654 -26.125 53.0625 C-25.57714844 52.17949219 -25.02929688 51.29648437 -24.46484375 50.38671875 C-24.04332031 49.72285156 -23.62179687 49.05898438 -23.1875 48.375 C-20.23005515 49.488391 -17.97302602 50.52751483 -15.375 52.375 C-9.67334238 55.95251066 -3.89694512 56.87199593 2.8125 56.375 C6.13436171 55.46385464 6.13436171 55.46385464 8.8125 54.375 C8.8125 52.395 8.8125 50.415 8.8125 48.375 C2.45869322 46.18724235 -3.85590133 44.20114178 -10.375 42.5625 C-18.0574604 40.39543429 -23.38662969 37.02461889 -28.25 30.6875 C-30.01943629 24.43549178 -30.39787315 18.04790738 -27.6875 12.0625 C-19.17707502 2.91379314 -12.56373316 -0.02261088 0 0 Z " fill="#232323" transform="translate(1176.1875,410.625)"/>
<path d="M0 0 C19.14 0 38.28 0 58 0 C58 13.71004827 57.66674381 16.29368202 49 25 C47.49232702 26.65972888 45.9921321 28.32628569 44.5 30 C43.39398437 31.21429688 43.39398437 31.21429688 42.265625 32.453125 C37.78913678 37.4853152 33.57528781 42.74799423 29.39453125 48.02734375 C28.30448869 49.3859012 27.15936868 50.70010178 26 52 C25.34 52 24.68 52 24 52 C24 52.66 24 53.32 24 54 C35.55 54 47.1 54 59 54 C59 58.62 59 63.24 59 68 C39.53 68 20.06 68 0 68 C0 53 0 53 4.4375 47.25 C6.28381994 45.49172337 8.13793517 43.74159369 10 42 C11.49016039 40.25586445 12.94927862 38.48469374 14.375 36.6875 C19.77384026 29.99952912 25.39062638 23.51203144 31 17 C20.77 16.67 10.54 16.34 0 16 C0 10.72 0 5.44 0 0 Z " fill="#242424" transform="translate(804,412)"/>
<path d="M0 0 C4.04121008 2.24370024 6.92659077 4.9328687 10.04296875 8.3046875 C12.86947517 11.00830233 16.19622757 12.39708153 19.75 13.9375 C27.05207197 17.13052072 27.05207197 17.13052072 29.75 20.25 C31.48826987 24.92160027 31.31211782 28.50409955 29.5 33.125 C26.23849974 38.36669685 22.67698288 41.12947524 16.75 42.9375 C13.891739 43.22648744 11.05765807 43.15756961 8.1875 43.125 C1.51797369 43.23333126 -2.89709494 44.27997944 -8.4375 48 C-15.65208773 52.67814362 -21.79762001 53.62014972 -30.25 51.9375 C-34.59731582 49.61753819 -37.2189883 47.45616026 -39.25 42.9375 C-41.04051872 34.23142708 -38.0975912 27.63882818 -33.98828125 20.20703125 C-32.50777013 17.42233955 -31.49064944 14.94955506 -30.625 11.9375 C-28.87963065 6.30424204 -25.70529646 2.54418729 -20.625 -0.4375 C-13.72695698 -3.51050037 -6.79709775 -3.11964061 0 0 Z " fill="#212121" transform="translate(437.25,429.0625)"/>
<path d="M0 0 C0.89460938 -0.00128906 1.78921875 -0.00257813 2.7109375 -0.00390625 C3.65195313 -0.00003906 4.59296875 0.00382812 5.5625 0.0078125 C6.97402344 0.00201172 6.97402344 0.00201172 8.4140625 -0.00390625 C9.75597656 -0.00197266 9.75597656 -0.00197266 11.125 0 C11.95128906 0.00112793 12.77757812 0.00225586 13.62890625 0.00341797 C15.5625 0.1328125 15.5625 0.1328125 16.5625 1.1328125 C16.64881874 2.47548663 16.66956473 3.82255572 16.66015625 5.16796875 C16.65693359 5.97685547 16.65371094 6.78574219 16.65039062 7.61914062 C16.64201172 8.46927734 16.63363281 9.31941406 16.625 10.1953125 C16.62048828 11.04931641 16.61597656 11.90332031 16.61132812 12.78320312 C16.59950373 14.89976913 16.58156769 17.01629935 16.5625 19.1328125 C21.8425 19.1328125 27.1225 19.1328125 32.5625 19.1328125 C32.5625 24.4128125 32.5625 29.6928125 32.5625 35.1328125 C27.2825 35.1328125 22.0025 35.1328125 16.5625 35.1328125 C16.68250659 39.75944967 16.80520713 44.38585181 16.93481445 49.01220703 C16.97807338 50.58540624 17.01975474 52.15864967 17.05981445 53.73193359 C17.11773662 55.99590365 17.18136714 58.25965301 17.24609375 60.5234375 C17.26280624 61.22462708 17.27951874 61.92581665 17.29673767 62.64825439 C17.39859475 66.02072417 17.73729252 68.83198258 18.5625 72.1328125 C25.4925 72.6278125 25.4925 72.6278125 32.5625 73.1328125 C32.5625 77.7528125 32.5625 82.3728125 32.5625 87.1328125 C24.39643771 89.85483326 14.35694955 90.71362806 5.9375 88.0703125 C0.2042419 84.77899767 -3.43735763 80.45633149 -5.4375 74.1328125 C-5.7066329 71.05107322 -5.67039311 67.98594878 -5.6328125 64.89453125 C-5.6299826 64.01376419 -5.62715271 63.13299713 -5.62423706 62.22554016 C-5.61307833 59.42365705 -5.58798171 56.62209834 -5.5625 53.8203125 C-5.55246463 51.91602025 -5.54333975 50.01172298 -5.53515625 48.10742188 C-5.51315309 43.44909453 -5.47865294 38.79100844 -5.4375 34.1328125 C-8.0775 34.1328125 -10.7175 34.1328125 -13.4375 34.1328125 C-13.4375 29.1828125 -13.4375 24.2328125 -13.4375 19.1328125 C-10.7975 19.1328125 -8.1575 19.1328125 -5.4375 19.1328125 C-5.44910156 17.84503906 -5.46070313 16.55726563 -5.47265625 15.23046875 C-5.4820327 13.55208478 -5.49113305 11.87369924 -5.5 10.1953125 C-5.50837891 9.34517578 -5.51675781 8.49503906 -5.52539062 7.61914062 C-5.52861328 6.81025391 -5.53183594 6.00136719 -5.53515625 5.16796875 C-5.54039307 4.419104 -5.54562988 3.67023926 -5.55102539 2.89868164 C-5.32041893 -0.68836459 -3.0498859 0.00416326 0 0 Z " fill="#252524" transform="translate(1109.4375,392.8671875)"/>
<path d="M0 0 C4.62342952 3.43793477 7.14889104 7.58456033 9.4375 12.8125 C9.82568359 15.87695312 9.82568359 15.87695312 9.8359375 19.09375 C9.84173828 20.85138672 9.84173828 20.85138672 9.84765625 22.64453125 C9.83605469 23.85496094 9.82445312 25.06539062 9.8125 26.3125 C9.82410156 27.52292969 9.83570313 28.73335937 9.84765625 29.98046875 C9.84378906 31.15222656 9.83992187 32.32398438 9.8359375 33.53125 C9.83255371 34.59279297 9.82916992 35.65433594 9.82568359 36.74804688 C9.37006942 40.34481986 8.33423175 42.73313918 6.4375 45.8125 C1.72860055 48.52917276 -2.16777732 49.56965406 -7.5625 48.8125 C-12.09870154 46.82680866 -15.274096 44.38374801 -18.0625 40.3125 C-21.52196561 35.86048577 -26.47674337 34.95274168 -31.73828125 33.67382812 C-37.67521407 32.14993983 -40.58502162 29.33548965 -44.375 24.5 C-46.41139621 19.89131383 -46.30725646 15.74010496 -44.5 11.0625 C-40.17632928 6.04146303 -35.19803042 4.54484966 -28.93359375 3.3828125 C-26.36617503 2.76527851 -24.2056654 1.79681168 -21.8125 0.6875 C-14.78325188 -2.24501445 -7.21067029 -2.40355676 0 0 Z " fill="#222221" transform="translate(502.5625,489.1875)"/>
<path d="M0 0 C19.18535246 -0.09369483 38.3706581 -0.16410191 57.5561924 -0.20724869 C66.46559959 -0.22782043 75.37486411 -0.25583719 84.28417969 -0.30175781 C92.05507108 -0.34179144 99.82585909 -0.36747191 107.59685075 -0.37635398 C111.70655972 -0.38154094 115.81597306 -0.39361786 119.9255867 -0.42292023 C123.80472549 -0.45035154 127.6834508 -0.45839 131.56267738 -0.45243073 C132.97587021 -0.45351873 134.38907889 -0.46130619 135.80218697 -0.4768219 C154.51727033 -0.67198949 169.46456334 4.99647308 183.0625 17.625 C192.04190128 26.81693149 197.11276485 38.22910022 197.13371277 51.01628113 C197.14011024 52.78912224 197.14011024 52.78912224 197.14663696 54.59777832 C197.14618378 55.88059692 197.14573059 57.16341553 197.14526367 58.48510742 C197.14825832 59.86041861 197.15166155 61.23572896 197.15544128 62.61103821 C197.16424984 66.33391062 197.16661794 70.05676004 197.16725707 73.77964187 C197.16796883 76.10573995 197.17010544 78.43183221 197.17275429 80.75792885 C197.18199404 88.87272131 197.18609049 96.98749737 197.18530273 105.10229492 C197.18470082 112.66864603 197.19527839 120.2349261 197.2110464 127.80125922 C197.22410731 134.2998905 197.22948731 140.79849849 197.22884732 147.2971428 C197.22859211 151.17771139 197.23145695 155.05821668 197.24202538 158.9387722 C197.25168314 162.58396648 197.25180163 166.22903658 197.24450874 169.87423515 C197.24295958 171.85243198 197.25132396 173.83062874 197.25994873 175.80880737 C197.25575424 176.98224197 197.25155975 178.15567657 197.24723816 179.3646698 C197.24778293 180.38651965 197.24832769 181.4083695 197.24888897 182.4611845 C197 185 197 185 195 188 C193.06967114 184.74341333 192.74811927 182.32032949 192.74171448 178.55726624 C192.73488647 177.45147217 192.72805847 176.3456781 192.72102356 175.20637512 C192.72357651 173.99753159 192.72612946 172.78868805 192.72875977 171.54321289 C192.72073589 169.58293008 192.71270964 167.62264728 192.70459449 165.66236484 C192.69774062 163.55602243 192.69573933 161.44972342 192.69503975 159.34337044 C192.69309486 154.94136284 192.6750149 150.53951182 192.65428162 146.13755798 C192.60513417 135.19615992 192.57430311 124.25471904 192.55297852 113.31323242 C192.53639921 104.82269797 192.51340336 96.33229734 192.46995777 87.84185213 C192.44833403 83.47829555 192.44010937 79.11499409 192.44235051 74.75138772 C192.44027099 71.3746338 192.41886504 67.99804201 192.40063477 64.62133789 C192.40521194 63.43071243 192.40978912 62.24008698 192.414505 61.01338196 C192.27848232 45.06521887 188.41116847 31.88840025 177.3046875 20.25390625 C167.34830295 10.51689967 154.81058668 5.88860083 140.85446167 5.86628723 C139.64350327 5.86202225 138.43254486 5.85775726 137.18489075 5.85336304 C135.86945786 5.85381622 134.55402496 5.85426941 133.19873047 5.85473633 C131.78876151 5.85174158 130.37879337 5.84833832 128.96882629 5.84455872 C125.14824537 5.83574392 121.32768687 5.83338159 117.50709677 5.83274293 C115.11526477 5.83203068 112.72343841 5.82989298 110.33160782 5.82724571 C101.97302135 5.81799866 93.61445079 5.81390978 85.25585938 5.81469727 C77.48860274 5.81529699 69.7214158 5.80476429 61.95417678 5.7889536 C55.2677207 5.77583246 48.58128726 5.77051532 41.89481843 5.77115268 C37.90944665 5.77140644 33.92413677 5.76862317 29.93877792 5.75797462 C26.18439383 5.74821705 22.43012979 5.74826632 18.6757412 5.75549126 C16.65991502 5.75701777 14.64408866 5.74874302 12.62828064 5.74005127 C4.89063927 5.76648343 -2.41443728 6.45969506 -10 8 C-9.34 7.34 -8.68 6.68 -8 6 C-7.01 6 -6.02 6 -5 6 C-4.34 4.68 -3.68 3.36 -3 2 C-2.01 2 -1.02 2 0 2 C0 1.34 0 0.68 0 0 Z " fill="#232322" transform="translate(370,352)"/>
<path d="M0 0 C4.50911167 2.17403598 6.85819183 4.49093016 9 9 C11.19699938 15.86949101 11.38830369 25.05170986 8.3125 31.625 C5.99710203 35.47301014 3.01316744 37.99341628 -1 40 C-5.64295428 40.38691286 -8.0561853 40.47190735 -12.25 38.375 C-17.05847125 34.22222938 -19.52031199 30.35586614 -20 24 C-20.53103483 15.35740816 -20.16900306 8.80280367 -14.5 2 C-10.19353282 -1.17601954 -5.07745169 -0.81601902 0 0 Z " fill="#F8F8F8" transform="translate(909,427)"/>
<path d="M0 0 C5.95731768 2.52040363 8.92470686 6.81987526 11.90625 12.421875 C13.62372796 17.57430887 13.45602708 21.77470264 11.15625 26.671875 C9.4427743 29.73715853 8.18256298 31.91654201 4.90625 33.421875 C0.25195132 34.63217064 -2.94148757 34.97584732 -7.34375 32.859375 C-13.14408109 27.71817244 -16.58689215 23.39456149 -17.3828125 15.5859375 C-17.80909859 6.49931296 -17.80909859 6.49931296 -14.71875 2.734375 C-10.20281754 -1.24394645 -5.71583652 -1.57825337 0 0 Z " fill="#232323" transform="translate(386.09375,419.578125)"/>
<path d="M0 0 C5.25487557 2.16258341 9.12274225 5.20955214 11.375 10.48828125 C12.91557089 16.67945053 13.77733363 24.98358774 10.375 30.6875 C6.47714589 34.482779 3.44823911 35.7931087 -1.9375 36.5625 C-6.12132491 36.37014023 -8.55802279 34.77974387 -11.5234375 31.90234375 C-15.81581617 26.37221568 -16.6463298 19.78646293 -16 13 C-14.69319779 7.45875344 -12.92710267 4.15839915 -8 1 C-5.06699268 -0.46650366 -3.27962656 -0.36440295 0 0 Z " fill="#242423" transform="translate(410,391)"/>
<path d="M0 0 C18.37837838 0 18.37837838 0 24 4 C27.66103838 7.77956121 28.54940972 10.19389371 28.5 15.4375 C28.32628204 20.73889286 27.82610959 24.07048205 24 28 C16.32722676 33.5627606 10.04917862 32 0 32 C0 21.44 0 10.88 0 0 Z " fill="#F9F9F9" transform="translate(974,402)"/>
<path d="M0 0 C4.67037281 1.73994281 7.26162293 3.84172371 10 8 C11.77447064 13.42988017 12.27841284 20.68372115 10.2109375 26.046875 C8.46999056 28.73138861 6.6667125 30.22219167 4 32 C-1.11033411 32.8355968 -4.9349554 32.61966231 -9.4375 30 C-14.00716895 24.65014366 -15.6102394 19.20017204 -15.35546875 12.17578125 C-14.61284453 7.63026818 -12.31850714 4.40943866 -9.1875 1.0625 C-5.95146381 -0.50928901 -3.55555014 -0.36781553 0 0 Z " fill="#222222" transform="translate(444,393)"/>
<path d="M0 0 C4.40608743 2.16298837 7.1987497 4.39680479 9 9 C9.7194304 14.96527706 9.50196737 19.92818519 6 25 C1.61463976 28.95752022 -0.99218388 30.31895877 -6.9765625 30.2109375 C-11.34436833 29.75560639 -13.67032944 27.30036651 -16.8125 24.4375 C-19.58949813 20.9444206 -19.54035902 17.65781713 -19.28125 13.32421875 C-18.60618488 7.74555564 -16.45444893 4.67053077 -12.12890625 1.17578125 C-8.18454769 -1.00266265 -4.34011871 -0.83794371 0 0 Z " fill="#2F2F2F" transform="translate(1017,512)"/>
<path d="M0 0 C5.00010429 2.53501791 8.20696879 6.72637878 10 12 C10.52371483 14.98340919 10.39606151 16.88101558 10 20 C7.875 23 7.875 23 5 25 C1.50254179 25.5829097 -0.20827621 25.52027563 -3.1875 23.5625 C-6.27835025 21.84536097 -8.01472677 21.74912775 -11.5 21.5625 C-15.02957288 21.30528416 -16.95998131 21.01961701 -20.1875 19.4375 C-22.26003678 16.65029537 -22.77317287 14.57643896 -22.55859375 11.09765625 C-21.35723459 6.58625858 -18.03190919 3.28558161 -14.16015625 0.8359375 C-9.59959478 -0.92890907 -4.77684473 -0.71277526 0 0 Z " fill="#242425" transform="translate(1198,576)"/>
<path d="M0 0 C4.30121897 1.72048759 7.84668603 4.8535359 10 9 C10.50569859 12.06515269 10.58087512 14.94276251 10 18 C7.5362616 20.4637384 6.64298278 20.26785086 3.25 20.4375 C-0.16908365 20.70201363 -2.00123619 21.00061809 -5.125 22.5625 C-9.18914317 24.59457159 -11.46916859 24.57534367 -16 24 C-19 22 -19 22 -21 19 C-21.69346179 14.14576749 -21.56708782 12.09216914 -19.3125 7.75 C-13.42493638 0.74857299 -8.87904304 -0.75865241 0 0 Z " fill="#232324" transform="translate(597,577)"/>
<path d="M0 0 C2.67380644 4.01070966 3.12592051 5.76151161 3.13371277 10.53526306 C3.13797775 11.71165848 3.14224274 12.88805389 3.14663696 14.10009766 C3.14618378 15.39729736 3.14573059 16.69449707 3.14526367 18.03100586 C3.14825458 19.40572705 3.15165695 20.78044739 3.15544128 22.15516663 C3.16429223 25.89480426 3.16661985 29.63441902 3.16725707 33.37406611 C3.16820533 36.49297312 3.17188265 39.61187476 3.17542917 42.73077971 C3.1835778 50.08736826 3.18601302 57.44394457 3.18530273 64.80053711 C3.18470175 72.39634266 3.1952568 79.99207723 3.2110464 87.58786482 C3.2241092 94.10340044 3.22948717 100.61891284 3.22884732 107.13446146 C3.22859198 111.02850338 3.23146343 114.92248224 3.24202538 118.81651115 C3.25168528 122.47806776 3.25180013 126.13950075 3.24450874 129.80106163 C3.24295948 131.78883841 3.25132424 133.77661511 3.25994873 135.76437378 C3.25575424 136.94358902 3.25155975 138.12280426 3.24723816 139.3377533 C3.24778293 140.36479842 3.24832769 141.39184355 3.24888897 142.45001125 C3 145 3 145 1 148 C-1.01153252 144.64665833 -1.26135723 142.06874827 -1.29193115 138.18626404 C-1.30598495 136.99870514 -1.32003876 135.81114624 -1.33451843 134.58760071 C-1.33982071 133.28824081 -1.34512299 131.98888092 -1.35058594 130.65014648 C-1.36316121 129.26527148 -1.37657432 127.88040386 -1.39076233 126.49554443 C-1.42661507 122.73746631 -1.44998827 118.97940596 -1.4705801 115.22121692 C-1.49365905 111.28944672 -1.52631702 107.35775387 -1.55743408 103.42604065 C-1.60806744 96.82450699 -1.65035265 90.22295753 -1.68798828 83.62133789 C-1.73164812 75.98563501 -1.78972095 68.35014139 -1.85523582 60.71459717 C-1.91108167 54.16085188 -1.95906765 47.60708324 -2.0004847 41.05323082 C-2.02524137 37.13795688 -2.05275993 33.22275441 -2.08739471 29.30755424 C-2.11951545 25.62796706 -2.14178582 21.94845013 -2.15640068 18.26875305 C-2.16672871 16.27141274 -2.18703179 14.27413187 -2.20759583 12.27687073 C-2.21037033 11.09213165 -2.21314484 9.90739258 -2.21600342 8.68675232 C-2.22262371 7.65493049 -2.229244 6.62310865 -2.23606491 5.56001949 C-2 3 -2 3 0 0 Z " fill="#121111" transform="translate(564,392)"/>
<path d="M0 0 C2.4375 1 2.4375 1 4 2 C4 1.34 4 0.68 4 0 C5.32 0 6.64 0 8 0 C8.11643304 3.89558088 8.18732909 7.79071258 8.25 11.6875 C8.30027344 13.34168945 8.30027344 13.34168945 8.3515625 15.02929688 C8.45042101 23.20983836 8.45042101 23.20983836 6.171875 27.20703125 C2.66212994 30.10446467 -0.52447731 30.26734703 -4.9921875 30.234375 C-7.83452597 29.90258452 -9.73969832 28.69522626 -12 27 C-11.34 25.68 -10.68 24.36 -10 23 C-9.46375 23.33 -8.9275 23.66 -8.375 24 C-5.4070908 25.24964598 -3.19200721 25.27756584 0 25 C0.66 24.34 1.32 23.68 2 23 C2 22.01 2 21.02 2 20 C1.34 20.33 0.68 20.66 0 21 C-4.27134769 21.4835488 -6.29946115 21.48733137 -9.875 19 C-12.49569906 15.30018956 -13.31793175 12.51286462 -13 8 C-10.39646471 0.97045471 -7.34449577 -0.51540321 0 0 Z " fill="#302F2F" transform="translate(802,520)"/>
<path d="M0 0 C3.0717718 1.71077974 5.40485654 3.80971307 7 7 C8.08599182 17.50309235 8.08599182 17.50309235 4.6875 22.1875 C0.41806618 25.0668856 -2.90976826 25.51765069 -8 25 C-11.63749354 22.93324231 -14.8325542 20.0860603 -16 16 C-16.47235231 11.11902613 -16.52269768 8.97329912 -14.1875 4.625 C-10.02584885 -0.36898138 -6.19357788 -1.06567524 0 0 Z " fill="#222222" transform="translate(471,416)"/>
<path d="M0 0 C2.93423195 1.79646854 4.47205355 2.9441071 6 6 C6.38023402 10.56280819 6.42738029 13.07400938 4.5 17.25 C0.61528451 21.52318703 -3.46270899 23.54328762 -9.125 24.5625 C-12.27507489 23.946181 -14.48286448 22.95357969 -16.85546875 20.75 C-18.80656683 17.76675105 -18.73919815 14.99094398 -18.53125 11.5078125 C-16.47600289 1.80583718 -9.15991598 -1.22716578 0 0 Z " fill="#232323" transform="translate(510,461)"/>
<path d="M0 0 C0.33 0 0.66 0 1 0 C1.00238835 0.67844908 1.00477671 1.35689816 1.00723743 2.0559063 C1.06631518 18.54683527 1.14181847 35.03759828 1.23571491 51.52836418 C1.280724 59.50310828 1.3201267 67.4778072 1.34643555 75.45263672 C1.36937441 82.40166717 1.40272592 89.35055528 1.44870156 96.29947293 C1.47268966 99.98056298 1.49138164 103.66151158 1.49761391 107.34267807 C1.50475776 111.44724469 1.53514345 115.55131747 1.56762695 119.65576172 C1.56619186 120.88286865 1.56475677 122.10997559 1.5632782 123.37426758 C1.57581635 124.48768524 1.58835449 125.60110291 1.60127258 126.7482605 C1.60588155 127.7198303 1.61049051 128.69140011 1.61523914 129.69241142 C1.80569577 130.83466777 1.80569577 130.83466777 2 132 C2.99 132.66 3.98 133.32 5 134 C2.37496892 148.12884374 -3.75694897 159.82703776 -15 169 C-22.77706134 174.13407565 -29.50906727 178.37219344 -39 178 C-39.33 177.34 -39.66 176.68 -40 176 C-40.99 175.34 -41.98 174.68 -43 174 C-42.24976563 173.84144531 -41.49953125 173.68289063 -40.7265625 173.51953125 C-27.81437399 170.57607266 -17.26364141 165.44113049 -9.1796875 154.546875 C-7.62415482 152.06114942 -6.25819502 149.65093691 -5 147 C-4.51104059 146.01814319 -4.51104059 146.01814319 -4.01220322 145.01645088 C-0.70196049 137.7344172 -0.42210832 131.20742971 -0.45410156 123.28857422 C-0.44534872 121.93735067 -0.43485702 120.58613746 -0.42277527 119.23493958 C-0.39510344 115.59713423 -0.39150637 111.95967022 -0.39249516 108.32177496 C-0.38934971 104.50872139 -0.36369784 100.69581792 -0.34051514 96.88284302 C-0.30007582 89.6760286 -0.27964296 82.46930439 -0.26654124 75.26239407 C-0.25063011 67.05183881 -0.21219735 58.84143616 -0.17194796 50.63096976 C-0.08971436 33.75402549 -0.03551916 16.87710595 0 0 Z " fill="#434343" transform="translate(562,403)"/>
<path d="M0 0 C3.5578125 -0.0928125 3.5578125 -0.0928125 7.1875 -0.1875 C8.29387817 -0.22846802 8.29387817 -0.22846802 9.42260742 -0.27026367 C13.85121619 -0.32588293 16.47361597 0.33748335 20 3 C22.39286884 5.39286884 22.32050616 6.09447094 22.375 9.375 C22.30982816 12.75307372 22.21347457 13.71536724 20.125 16.5 C16.62729779 18.96896627 14.63530697 19.11203845 10.375 19.0625 C9.37210938 19.05347656 8.36921875 19.04445313 7.3359375 19.03515625 C6.56507812 19.02355469 5.79421875 19.01195312 5 19 C5 22.3 5 25.6 5 29 C3.35 29 1.7 29 0 29 C0 19.43 0 9.86 0 0 Z " fill="#292828" transform="translate(1089,512)"/>
<path d="M0 0 C3.01784991 1.75607646 5.41468217 3.82936435 7 7 C7.48998124 11.99780863 6.92508956 15.32116248 4.265625 19.48828125 C1.43823445 22.86544218 -1.83448515 23.83349788 -6.0625 24.4375 C-10.41294805 23.78956093 -12.71469155 21.7137446 -15.3125 18.25 C-16.72000722 13.64361274 -16.65889456 9.56053976 -14.8125 5.1875 C-10.83126271 0.38255844 -6.19074944 -1.33004383 0 0 Z " fill="#242424" transform="translate(529,479)"/>
<path d="M0 0 C2.77682182 1.72629852 3.3536122 2.98162237 5 6 C5.74101446 11.18710123 4.89927304 14.65109044 2 19 C-1.21384599 21.84014297 -3.81589301 23.26603876 -8.0625 23.5625 C-12 23 -12 23 -15 21.125 C-17.81456268 16.72724582 -17.8954786 13.0879466 -17 8 C-13.07460117 0.41991951 -8.19491208 -1.47456221 0 0 Z " fill="#222221" transform="translate(481,465)"/>
<path d="M0 0 C1.4540625 0.0309375 1.4540625 0.0309375 2.9375 0.0625 C4.50622755 4.03097107 6.07275154 8.00030246 7.63720703 11.97045898 C8.17012475 13.32193702 8.70365211 14.67317483 9.23779297 16.02416992 C10.00387046 17.96210435 10.76777686 19.90088209 11.53125 21.83984375 C11.99208984 23.00765381 12.45292969 24.17546387 12.92773438 25.37866211 C13.9375 28.0625 13.9375 28.0625 13.9375 29.0625 C11.9575 29.0625 9.9775 29.0625 7.9375 29.0625 C7.6075 27.0825 7.2775 25.1025 6.9375 23.0625 C2.3175 23.3925 -2.3025 23.7225 -7.0625 24.0625 C-8.0525 26.5375 -8.0525 26.5375 -9.0625 29.0625 C-10.7125 29.0625 -12.3625 29.0625 -14.0625 29.0625 C-13.49380631 25.0001364 -12.59732896 21.48701688 -11.03125 17.69921875 C-10.63292969 16.73048828 -10.23460937 15.76175781 -9.82421875 14.76367188 C-9.40785156 13.76916016 -8.99148438 12.77464844 -8.5625 11.75 C-8.14613281 10.73615234 -7.72976563 9.72230469 -7.30078125 8.67773438 C-3.74038933 0.07633448 -3.74038933 0.07633448 0 0 Z " fill="#2F2E2E" transform="translate(839.0625,511.9375)"/>
<path d="M0 0 C13.75 -0.125 13.75 -0.125 16 1 C16 1.66 16 2.32 16 3 C16.515625 2.505 17.03125 2.01 17.5625 1.5 C20.9238388 -0.56851618 23.11959911 -0.48505011 27 0 C29.203125 1.48046875 29.203125 1.48046875 31 4 C31.48293505 6.93375591 31.37775359 9.78709953 31.25 12.75 C31.23195313 13.54277344 31.21390625 14.33554687 31.1953125 15.15234375 C31.14833082 17.10208348 31.07659044 19.05119878 31 21 C29.35 21 27.7 21 26 21 C26 15.72 26 10.44 26 5 C24.02 5 22.04 5 20 5 C18.00383446 6.99616554 18.59016573 10.81701963 18.4375 13.5625 C18.39431641 14.27341797 18.35113281 14.98433594 18.30664062 15.71679688 C18.20028223 17.47761912 18.09961154 19.2387832 18 21 C16.35 21 14.7 21 13 21 C12.67 16.05 12.34 11.1 12 6 C10.35 5.67 8.7 5.34 7 5 C5.00383446 6.99616554 5.59016573 10.81701963 5.4375 13.5625 C5.39431641 14.27341797 5.35113281 14.98433594 5.30664062 15.71679688 C5.20028223 17.47761912 5.09961154 19.2387832 5 21 C3.35 21 1.7 21 0 21 C0 14.07 0 7.14 0 0 Z " fill="#2F2F2E" transform="translate(890,520)"/>
<path d="M0 0 C6.6 0 13.2 0 20 0 C20 1.65 20 3.3 20 5 C15.05 5 10.1 5 5 5 C5 7.31 5 9.62 5 12 C9.62 12 14.24 12 19 12 C19 13.65 19 15.3 19 17 C14.38 17 9.76 17 5 17 C5 19.64 5 22.28 5 25 C9.95 25 14.9 25 20 25 C20 26.32 20 27.64 20 29 C13.4 29 6.8 29 0 29 C0 19.43 0 9.86 0 0 Z " fill="#2C2C2C" transform="translate(607,512)"/>
<path d="M0 0 C2.8100346 1.79363911 4.50940468 3.01880935 6 6 C6.1346515 10.8955438 5.69296109 14.14712481 2.5625 18 C-0.13497947 20.10534983 -1.41243838 20.89317062 -4.75 21.5 C-8.96480076 20.85156911 -10.32008775 19.30805528 -12.86328125 16.00390625 C-14.65962736 12.83715176 -14.58986568 10.53919406 -14 7 C-11.02756385 0.63049396 -6.86897393 -1.12474427 0 0 Z " fill="#252525" transform="translate(530,509)"/>
<path d="M0 0 C1.05960938 0.00676758 1.05960938 0.00676758 2.140625 0.01367188 C3.88545275 0.02546125 5.630237 0.04339676 7.375 0.0625 C7.99922591 8.99239844 7.99922591 8.99239844 5.625 13.0625 C1.44149668 16.78116962 -1.9370274 17.52503383 -7.43359375 17.37109375 C-10.88321342 16.88531843 -12.43474814 15.73186945 -14.625 13.0625 C-15.8125 9.625 -15.8125 9.625 -15.625 6.0625 C-11.23828277 0.56504347 -6.58586585 -0.07898179 0 0 Z " fill="#F5F5F5" transform="translate(765.625,450.9375)"/>
<path d="M0 0 C2.7234023 2.17872184 3.7941717 3.69405494 4.33984375 7.15625 C4.5371229 11.8909496 4.08237722 15.20630496 1 19 C-2.19233485 20.59616743 -5.53461497 20.51466114 -9 20 C-11.43119623 18.12984906 -12.64069173 16.71861655 -14 14 C-14.55512815 9.36786507 -14.6364242 6.01827873 -12.125 2 C-8.29196559 -1.60756179 -4.92064282 -1.38089186 0 0 Z " fill="#F6F6F6" transform="translate(1017,517)"/>
<path d="M0 0 C3.82094355 1.06137321 5.39164396 2.45434775 7.96875 5.546875 C8.46506943 8.40335174 8.26654161 10.6185908 7.96875 13.546875 C3.34875 13.546875 -1.27125 13.546875 -6.03125 13.546875 C-5.70125 14.866875 -5.37125 16.186875 -5.03125 17.546875 C0.54705016 17.67156599 0.54705016 17.67156599 5.96875 16.546875 C6.62875 17.536875 7.28875 18.526875 7.96875 19.546875 C4.27264888 22.31895084 1.40947743 23.07647792 -3.1015625 22.90625 C-6.19438871 22.33025807 -7.88211037 20.75922461 -10.03125 18.546875 C-12.1312536 15.39686961 -12.58020141 13.44898504 -12.46875 9.6875 C-11.16565371 3.311636 -6.48252489 -0.64825249 0 0 Z " fill="#393939" transform="translate(665.03125,519.453125)"/>
<path d="M0 0 C2.8100346 1.79363911 4.50940468 3.01880935 6 6 C6 8.31 6 10.62 6 13 C1.05 13 -3.9 13 -9 13 C-8.01 14.32 -7.02 15.64 -6 17 C-2.4516955 17.3774792 0.59750576 17.04692131 4 16 C4.33 17.32 4.66 18.64 5 20 C0.85663672 22.00890341 -2.4146473 22.56311349 -7 22 C-9.97116227 20.21198512 -12.42553953 18.14892094 -14 15 C-14.55512815 10.36786507 -14.6364242 7.01827873 -12.125 3 C-8.46188547 -0.44763721 -4.88098361 -0.70129075 0 0 Z " fill="#3D3D3D" transform="translate(1182,520)"/>
<path d="M0 0 C0.74121094 -0.03996094 1.48242188 -0.07992187 2.24609375 -0.12109375 C5.91675447 0.76407401 7.32742713 2.44437794 9.5625 5.4375 C10.14218532 8.24343508 10.0405234 10.90045101 9.875 13.75 C9.85244141 14.49056641 9.82988281 15.23113281 9.80664062 15.99414062 C9.7480815 17.80947357 9.65840886 19.62375681 9.5625 21.4375 C8.48226563 21.42203125 7.40203125 21.4065625 6.2890625 21.390625 C2.55384724 21.31941289 2.55384724 21.31941289 -1.0625 22.1875 C-4.4375 22.4375 -4.4375 22.4375 -7.375 20.875 C-9.4375 18.4375 -9.4375 18.4375 -10 15.375 C-9.4375 12.4375 -9.4375 12.4375 -7.73046875 10.765625 C-4.97855727 9.17167286 -3.34017833 9.12555217 -0.1875 9.25 C1.15054687 9.29060547 1.15054687 9.29060547 2.515625 9.33203125 C3.19109375 9.36683594 3.8665625 9.40164063 4.5625 9.4375 C3.9025 8.1175 3.2425 6.7975 2.5625 5.4375 C-0.9594721 5.35745518 -4.05731469 5.39744298 -7.4375 6.4375 C-7.7675 5.1175 -8.0975 3.7975 -8.4375 2.4375 C-5.54728027 0.80560723 -3.31948488 0.09780111 0 0 Z " fill="#3A3938" transform="translate(1133.4375,519.5625)"/>
<path d="M0 0 C2.79066464 1.3558131 3.86600558 2.55371372 6 5 C6 7.31 6 9.62 6 12 C1.38 12 -3.24 12 -8 12 C-7.67 13.65 -7.34 15.3 -7 17 C-1.42169984 17.12469099 -1.42169984 17.12469099 4 16 C4.66 16.99 5.32 17.98 6 19 C2.30596901 21.77052324 -0.55960366 22.53879947 -5.0703125 22.3515625 C-8.242153 21.77369682 -9.85500693 20.33425716 -12 18 C-14.47601332 13.83579579 -14.15783642 10.63134568 -13 6 C-9.23999832 0.42064268 -6.73884491 -0.67388449 0 0 Z " fill="#343434" transform="translate(1067,520)"/>
<path d="M0 0 C2.66997143 2.09268031 4.50318801 3.93100313 6.3125 6.8125 C6.3125 8.7925 6.3125 10.7725 6.3125 12.8125 C-2.2675 12.8125 -10.8475 12.8125 -19.6875 12.8125 C-16.24305556 2.47916667 -16.24305556 2.47916667 -12.6875 -0.1875 C-8.21323668 -1.67892111 -4.36835977 -1.93020548 0 0 Z " fill="#F3F3F3" transform="translate(1066.6875,426.1875)"/>
<path d="M0 0 C2.734375 1.4765625 2.734375 1.4765625 5 4 C5.6070164 6.94132133 5.47349822 9.76286381 5.3125 12.75 C5.28994141 13.54277344 5.26738281 14.33554687 5.24414062 15.15234375 C5.18540471 17.1023762 5.09572654 19.05143312 5 21 C3.824375 20.690625 3.824375 20.690625 2.625 20.375 C1.325625 20.189375 1.325625 20.189375 0 20 C-0.66 20.66 -1.32 21.32 -2 22 C-5.89201406 22.43244601 -8.13230302 22.57846465 -11.4375 20.375 C-13.44814771 17.31881548 -13.53520313 15.59350675 -13 12 C-11.828125 10.328125 -11.828125 10.328125 -10 9 C-7.30078125 8.70703125 -7.30078125 8.70703125 -4.3125 8.8125 C-3.31863281 8.83957031 -2.32476563 8.86664062 -1.30078125 8.89453125 C-0.16189453 8.94673828 -0.16189453 8.94673828 1 9 C0.34 7.68 -0.32 6.36 -1 5 C-6.08303686 4.88679144 -6.08303686 4.88679144 -11 6 C-11.33 4.68 -11.66 3.36 -12 2 C-8.38341254 -0.41105831 -4.19684135 -0.92221095 0 0 Z " fill="#212020" transform="translate(938,520)"/>
<path d="M0 0 C14.10174652 5.73563323 24.00329861 18.27628229 29.984375 31.85546875 C30.78515625 34.1328125 30.78515625 34.1328125 30.66015625 36.3203125 C29.50765194 38.70764286 28.14163933 39.05867262 25.78515625 40.1328125 C25.615 39.5759375 25.44484375 39.0190625 25.26953125 38.4453125 C21.17708048 25.55844624 14.02147841 13.85979548 1.78515625 7.1328125 C-2.82352927 5.25446175 -7.46985144 3.6389477 -12.21484375 2.1328125 C-11.22484375 1.8028125 -10.23484375 1.4728125 -9.21484375 1.1328125 C-9.21484375 0.4728125 -9.21484375 -0.1871875 -9.21484375 -0.8671875 C-5.96828788 -2.49046543 -3.33811909 -1.06627689 0 0 Z " fill="#252525" transform="translate(535.21484375,356.8671875)"/>
<path d="M0 0 C1.65 0 3.3 0 5 0 C5.33 2.97 5.66 5.94 6 9 C6.66 8.67 7.32 8.34 8 8 C14.1456788 7.43095567 14.1456788 7.43095567 17.2109375 9.47265625 C19.82776766 13.16935738 19.4400947 16.34126514 19.25 20.75 C19.23195313 21.54277344 19.21390625 22.33554687 19.1953125 23.15234375 C19.14833082 25.10208348 19.07659044 27.05119878 19 29 C17.35 29 15.7 29 14 29 C13.93941406 27.92878906 13.87882813 26.85757813 13.81640625 25.75390625 C13.73201463 24.35675609 13.64736594 22.95962143 13.5625 21.5625 C13.52318359 20.85544922 13.48386719 20.14839844 13.44335938 19.41992188 C13.52375562 15.91309581 13.52375562 15.91309581 12 13 C9.5 12.83333333 9.5 12.83333333 7 13 C5.00383446 14.99616554 5.59016573 18.81701963 5.4375 21.5625 C5.39431641 22.27341797 5.35113281 22.98433594 5.30664062 23.71679688 C5.20028223 25.47761912 5.09961154 27.2387832 5 29 C3.35 29 1.7 29 0 29 C0 19.43 0 9.86 0 0 Z " fill="#2B2B2A" transform="translate(732,512)"/>
<path d="M0 0 C1.65 0 3.3 0 5 0 C5 0.66 5 1.32 5 2 C5.99 1.34 6.98 0.68 8 0 C11.7084697 -0.40456033 14.03410171 -0.63253516 17.20703125 1.4453125 C19.88866367 5.26620052 19.43464382 8.70492135 19.25 13.25 C19.23195313 14.09046875 19.21390625 14.9309375 19.1953125 15.796875 C19.14830798 17.86507395 19.07656724 19.93268441 19 22 C17.35 22 15.7 22 14 22 C14 16.39 14 10.78 14 5 C11.69 5 9.38 5 7 5 C5.47893366 8.04213267 5.62570662 11.28047572 5.4375 14.625 C5.39431641 15.33140625 5.35113281 16.0378125 5.30664062 16.765625 C5.20055249 18.51018537 5.09977111 20.25506697 5 22 C3.35 22 1.7 22 0 22 C0 14.74 0 7.48 0 0 Z " fill="#353434" transform="translate(766,520)"/>
<path d="M0 0 C2.33333333 0 4.66666667 0 7 0 C8.97683455 -0.15942214 10.9536532 -0.31922889 12.9296875 -0.48828125 C15 0 15 0 17.2421875 2 C19.5545683 5.94646324 19.45784387 8.8398597 19.25 13.3125 C19.23195313 14.05306641 19.21390625 14.79363281 19.1953125 15.55664062 C19.14847337 17.3716571 19.07673789 19.18600166 19 21 C17.35 21 15.7 21 14 21 C13.93941406 19.92878906 13.87882812 18.85757813 13.81640625 17.75390625 C13.73201463 16.35675609 13.64736594 14.95962143 13.5625 13.5625 C13.52318359 12.85544922 13.48386719 12.14839844 13.44335938 11.41992188 C13.52375562 7.91309581 13.52375562 7.91309581 12 5 C9.5 4.83333333 9.5 4.83333333 7 5 C4.94077598 7.05922402 5.58572421 11.21708124 5.4375 14.0625 C5.39431641 14.82111328 5.35113281 15.57972656 5.30664062 16.36132812 C5.20026367 18.24065438 5.09960066 20.12030244 5 22 C3.35 22 1.7 22 0 22 C0 14.74 0 7.48 0 0 Z " fill="#2E2C2C" transform="translate(1031,520)"/>
<path d="M0 0 C2.66666667 0 5.33333333 0 8 0 C9.134375 -0.103125 10.26875 -0.20625 11.4375 -0.3125 C15 0 15 0 17.20703125 1.96875 C19.62172544 6.0511088 19.45226057 9.17217585 19.25 13.8125 C19.23195313 14.60076172 19.21390625 15.38902344 19.1953125 16.20117188 C19.14844048 18.13464261 19.0767041 20.06748285 19 22 C17.35 22 15.7 22 14 22 C13.93941406 20.85660156 13.87882813 19.71320312 13.81640625 18.53515625 C13.73201572 17.04425695 13.64736698 15.55337225 13.5625 14.0625 C13.52318359 13.30775391 13.48386719 12.55300781 13.44335938 11.77539062 C13.55961976 8.08055813 13.55961976 8.08055813 12 5 C9.5 4.83333333 9.5 4.83333333 7 5 C5.00383446 6.99616554 5.59016573 10.81701963 5.4375 13.5625 C5.39431641 14.27341797 5.35113281 14.98433594 5.30664062 15.71679688 C5.20028223 17.47761912 5.09961154 19.2387832 5 21 C3.35 21 1.7 21 0 21 C0 14.07 0 7.14 0 0 Z " fill="#333332" transform="translate(856,520)"/>
<path d="M0 0 C1.65 0 3.3 0 5 0 C5.84026396 1.76755526 6.67198722 3.53917263 7.5 5.3125 C7.9640625 6.29863281 8.428125 7.28476562 8.90625 8.30078125 C10 11 10 11 10 14 C10.66 14 11.32 14 12 14 C12.1546875 13.01 12.1546875 13.01 12.3125 12 C13.19213564 8.16158991 14.56969896 4.66903309 16 1 C17.65 1 19.3 1 21 1 C20.40907372 4.38999184 19.55822365 7.35049095 18.1875 10.50390625 C17.65769531 11.73850586 17.65769531 11.73850586 17.1171875 12.99804688 C16.56417969 14.26745117 16.56417969 14.26745117 16 15.5625 C15.26813692 17.25013531 14.53887132 18.93889998 13.8125 20.62890625 C13.48894531 21.37213135 13.16539062 22.11535645 12.83203125 22.88110352 C12.03686969 24.90610562 11.47489311 26.87947036 11 29 C9.35 29 7.7 29 6 29 C6.14179687 28.45214844 6.28359375 27.90429688 6.4296875 27.33984375 C7.86133868 19.61646239 5.52888011 14.24696953 2.4453125 7.3203125 C1.35819525 4.82288099 0.51965559 2.65157595 0 0 Z " fill="#282728" transform="translate(692,520)"/>
<path d="M0 0 C2.5 1 2.5 1 4 2 C3.67 3.32 3.34 4.64 3 6 C-0.3 5.34 -3.6 4.68 -7 4 C-7 5.32 -7 6.64 -7 8 C-5.9275 8.103125 -4.855 8.20625 -3.75 8.3125 C1.7704918 9.32459016 1.7704918 9.32459016 4 12 C4.52134619 15.64942331 4.81151056 17.90622489 2.5625 20.9375 C-1.28150474 22.53135562 -4.89901369 22.58693015 -9 22 C-11.5625 20.5 -11.5625 20.5 -13 19 C-12.34 17.68 -11.68 16.36 -11 15 C-10.2265625 15.495 -10.2265625 15.495 -9.4375 16 C-6.21973488 17.32010877 -3.4429472 17.13242105 0 17 C0 16.01 0 15.02 0 14 C-1.5778125 13.87625 -1.5778125 13.87625 -3.1875 13.75 C-7.33675198 12.93375371 -9.15835073 12.09998102 -12 9 C-12.5625 6.5 -12.5625 6.5 -12 4 C-8.92273899 -0.74411072 -5.18827818 -0.74422023 0 0 Z " fill="#31302F" transform="translate(970,520)"/>
<path d="M0 0 C1.65 0 3.3 0 5 0 C5.34933594 0.85464844 5.69867187 1.70929687 6.05859375 2.58984375 C6.51363281 3.69457031 6.96867188 4.79929687 7.4375 5.9375 C8.11619141 7.59072266 8.11619141 7.59072266 8.80859375 9.27734375 C9.74424608 11.86568916 9.74424608 11.86568916 11 13 C12.65 8.71 14.3 4.42 16 0 C17.65 0 19.3 0 21 0 C20.40925318 4.80720225 18.9584358 8.9198763 17 13.3125 C16.72671875 13.94478516 16.4534375 14.57707031 16.171875 15.22851562 C14.15160714 19.84839286 14.15160714 19.84839286 13 21 C11.33382885 21.04063832 9.66611905 21.042721 8 21 C6.65757579 18.06657102 5.32765933 15.12763748 4 12.1875 C3.6184375 11.35412109 3.236875 10.52074219 2.84375 9.66210938 C2.4828125 8.85966797 2.121875 8.05722656 1.75 7.23046875 C1.41484375 6.49207764 1.0796875 5.75368652 0.734375 4.99291992 C0 3 0 3 0 0 Z " fill="#222122" transform="translate(630,520)"/>
<path d="M0 0 C2.0625 2 2.0625 2 3 4 C2.67 4.66 2.34 5.32 2 6 C1.06027344 5.85691406 1.06027344 5.85691406 0.1015625 5.7109375 C-0.71570312 5.60007812 -1.53296875 5.48921875 -2.375 5.375 C-3.18710938 5.25898437 -3.99921875 5.14296875 -4.8359375 5.0234375 C-5.55007813 5.01570312 -6.26421875 5.00796875 -7 5 C-9.1702792 6.7587364 -9.1702792 6.7587364 -9.23046875 8.91015625 C-9.53754032 12.76685951 -9.53754032 12.76685951 -8 16 C-4.33655389 16.13568319 -1.49384279 16.16461426 2 15 C2.33 16.32 2.66 17.64 3 19 C-0.00587687 21.3483413 -2.23481351 22.29069312 -6 22.0625 C-9.66798947 21.40253977 -11.93020179 20.00497036 -14.15234375 16.87890625 C-15.77450318 13.28324411 -15.78215399 9.82621276 -15 6 C-11.13986727 -0.17621237 -6.95933292 -0.98144439 0 0 Z " fill="#303030" transform="translate(1162,520)"/>
<path d="M0 0 C1.65 0 3.3 0 5 0 C5 1.65 5 3.3 5 5 C6.65 5 8.3 5 10 5 C10 6.32 10 7.64 10 9 C8.35 9 6.7 9 5 9 C5.33 12.96 5.66 16.92 6 21 C7.65 21.33 9.3 21.66 11 22 C10.67 23.65 10.34 25.3 10 27 C6.6875 27.25 6.6875 27.25 3 27 C0.33915287 24.58104807 0.01338843 23.15780496 -0.29296875 19.546875 C-0.25816406 18.29390625 -0.22335937 17.0409375 -0.1875 15.75 C-0.16042969 14.48671875 -0.13335938 13.2234375 -0.10546875 11.921875 C-0.07066406 10.95765625 -0.03585937 9.9934375 0 9 C-0.99 9 -1.98 9 -3 9 C-3 7.68 -3 6.36 -3 5 C-2.01 5 -1.02 5 0 5 C0 3.35 0 1.7 0 0 Z " fill="#232223" transform="translate(718,515)"/>
<path d="M0 0 C4.40608743 2.16298837 7.1987497 4.39680479 9 9 C9.23155529 12.34983315 9.17570423 15.64860453 9 19 C8.01 19 7.02 19 6 19 C5.34 19.66 4.68 20.32 4 21 C3.96261719 20.25234375 3.92523437 19.5046875 3.88671875 18.734375 C3.82097656 17.74953125 3.75523437 16.7646875 3.6875 15.75 C3.62949219 14.77546875 3.57148437 13.8009375 3.51171875 12.796875 C2.940137 9.67280988 2.23009656 8.24034988 0 6 C-2.66001131 4.88145968 -5.13956988 4.64803301 -8 5 C-10.91790525 7.2504197 -10.91790525 7.2504197 -13 10 C-13.99 10.495 -13.99 10.495 -15 11 C-15 10.01 -15 9.02 -15 8 C-15.99 8.495 -15.99 8.495 -17 9 C-16.76346394 5.80676321 -15.72817004 4.69332005 -13.5625 2.25 C-9.41986542 -0.9742674 -5.01659781 -0.88096352 0 0 Z " fill="#292828" transform="translate(1017,512)"/>
<path d="M0 0 C3.5 0.4375 3.5 0.4375 5.4375 1.4375 C7.16569109 4.69056559 7.25822114 7.90858293 6.5 11.4375 C4.3125 14 4.3125 14 1.5 15.4375 C-1.70903557 15.4375 -2.96911421 14.93177297 -5.3125 12.75 C-6.86382423 9.72900017 -6.91972691 7.79531526 -6.5 4.4375 C-4.86658084 0.78632776 -4.0205891 0.50257364 0 0 Z " fill="#242323" transform="translate(1192.5,555.5625)"/>
<path d="M0 0 C0.495 1.98 0.495 1.98 1 4 C-15.17 4 -31.34 4 -48 4 C-48 3.34 -48 2.68 -48 2 C-43.56029239 0.92146414 -39.1734549 0.78291457 -34.62890625 0.68359375 C-33.82895737 0.66281265 -33.02900848 0.64203156 -32.20481873 0.62062073 C-29.65746203 0.55552363 -27.11000396 0.49652019 -24.5625 0.4375 C-22.85350595 0.39426098 -21.14452139 0.35064504 -19.43554688 0.30664062 C-6.10979608 -0.02840079 -6.10979608 -0.02840079 0 0 Z " fill="#131313" transform="translate(523,578)"/>
<path d="M0 0 C1.65 0 3.3 0 5 0 C5 9.57 5 19.14 5 29 C3.35 29 1.7 29 0 29 C0 19.43 0 9.86 0 0 Z " fill="#292828" transform="translate(1115,512)"/>
<path d="M0 0 C1.75570312 -0.01836914 1.75570312 -0.01836914 3.546875 -0.03710938 C4.6709375 -0.03904297 5.795 -0.04097656 6.953125 -0.04296875 C7.97051758 -0.04707764 8.98791016 -0.05118652 10.03613281 -0.05541992 C12.77611571 0.18983763 14.41333535 0.78125146 16.75 2.1875 C16.09 2.5175 15.43 2.8475 14.75 3.1875 C14.75 3.8475 14.75 4.5075 14.75 5.1875 C2.21 4.8575 -10.33 4.5275 -23.25 4.1875 C-21.25 1.1875 -21.25 1.1875 -17.953125 0.51171875 C-11.98365049 -0.02348481 -5.98867511 0.00334189 0 0 Z " fill="#191919" transform="translate(511.25,352.8125)"/>
<path d="M0 0 C1.65 0 3.3 0 5 0 C5 0.66 5 1.32 5 2 C5.99 1.34 6.98 0.68 8 0 C9.32 0 10.64 0 12 0 C12 1.65 12 3.3 12 5 C10.02 5.66 8.04 6.32 6 7 C5.67 11.62 5.34 16.24 5 21 C3.35 21 1.7 21 0 21 C0 14.07 0 7.14 0 0 Z " fill="#292828" transform="translate(678,520)"/>
<path d="M0 0 C1.875 1.125 1.875 1.125 3 3 C3.53852618 6.61581862 3.42236225 8.34111489 1.4375 11.4375 C-1 13 -1 13 -4.625 12.875 C-8 12 -8 12 -10 10 C-10.46879799 6.40588208 -10.44361448 4.64835963 -8.375 1.625 C-5.32214079 -0.46379841 -3.63031776 -0.54068562 0 0 Z " fill="#2C2C2C" transform="translate(1212,561)"/>
<path d="M0 0 C1.17369141 0.27650391 1.17369141 0.27650391 2.37109375 0.55859375 C3.54865234 0.80802734 3.54865234 0.80802734 4.75 1.0625 C7.33719796 2.23582128 7.82369489 3.3927665 8.80859375 5.99609375 C8.14859375 6.65609375 7.48859375 7.31609375 6.80859375 7.99609375 C6.80859375 9.31609375 6.80859375 10.63609375 6.80859375 11.99609375 C5.80859375 12.99609375 5.80859375 12.99609375 2.49609375 13.30859375 C-1.19140625 12.99609375 -1.19140625 12.99609375 -3.62890625 11.37109375 C-5.63955396 8.31490923 -5.72660938 6.5896005 -5.19140625 2.99609375 C-3.54159782 0.71333995 -2.86559568 -0.00510801 0 0 Z " fill="#272627" transform="translate(930.19140625,529.00390625)"/>
<path d="M0 0 C3.5625 0.3125 3.5625 0.3125 5.5625 1.375 C7.21655871 4.57973875 6.46971843 6.92555119 5.5625 10.3125 C3.875 12.3125 3.875 12.3125 1.5625 13.3125 C-1.5625 13.25 -1.5625 13.25 -4.4375 12.3125 C-5.875 10.625 -5.875 10.625 -6.4375 8.3125 C-6.01954616 3.08807701 -5.66127348 0.51466123 0 0 Z " fill="#2D2C2C" transform="translate(1176.4375,564.6875)"/>
<path d="M0 0 C0.86625 0.3403125 0.86625 0.3403125 1.75 0.6875 C1.42 1.0175 1.09 1.3475 0.75 1.6875 C3.06 2.3475 5.37 3.0075 7.75 3.6875 C7.24396008 5.85624252 6.75016187 7.68717627 5.75 9.6875 C6.74 10.0175 7.73 10.3475 8.75 10.6875 C4.42899104 12.91347431 1.44682975 12.81821827 -3.25 11.6875 C-5.1875 10.5 -5.1875 10.5 -6.25 8.6875 C-6.6875 5.6875 -6.6875 5.6875 -6.25 2.6875 C-4.12558468 0.33546876 -3.18427034 -0.44225977 0 0 Z " fill="#272626" transform="translate(1130.25,529.3125)"/>
<path d="M0 0 C5.75 0.875 5.75 0.875 8 2 C8 1.34 8 0.68 8 0 C9.32 0 10.64 0 12 0 C12 6.93 12 13.86 12 21 C11.34 20.34 10.68 19.68 10 19 C9.34 19.99 8.68 20.98 8 22 C7.86722656 20.85660156 7.73445312 19.71320312 7.59765625 18.53515625 C7.4194969 17.0442438 7.24109918 15.55335982 7.0625 14.0625 C6.93198242 12.93038086 6.93198242 12.93038086 6.79882812 11.77539062 C6.65675901 8.07812542 6.65675901 8.07812542 5 5 C2.67182036 4.63239269 0.3381615 4.29758419 -2 4 C-1.34 2.68 -0.68 1.36 0 0 Z " fill="#292929" transform="translate(798,520)"/>
<path d="M0 0 C2 3 2 3 1.8125 6.5625 C1 10 1 10 -2 12 C-5.31702672 12.5103118 -6.58054426 12.28699603 -9.375 10.375 C-11 8 -11 8 -10.9375 4.875 C-9.11046021 -0.72792203 -5.23048857 -0.47549896 0 0 Z " fill="#272828" transform="translate(1219,576)"/>
<path d="M0 0 C2.85071149 1.35033702 3.8585481 2.48379402 6 5 C6 7.31 6 9.62 6 12 C1.38 12 -3.24 12 -8 12 C-7.34 11.01 -6.68 10.02 -6 9 C-4.0546875 8.70703125 -4.0546875 8.70703125 -1.875 8.8125 C-0.59625 8.874375 0.6825 8.93625 2 9 C0.84315671 6.9004467 0.84315671 6.9004467 -1 5 C-4.7404533 4.438932 -5.77856724 4.85237816 -9 7 C-10.32 7 -11.64 7 -13 7 C-10.17706866 0.70269162 -7.1276433 -1.40942099 0 0 Z " fill="#302F2F" transform="translate(667,520)"/>
<path d="M0 0 C2 2 2 2 2.265625 4.09375 C2.26046875 4.8878125 2.2553125 5.681875 2.25 6.5 C2.25515625 7.2940625 2.2603125 8.088125 2.265625 8.90625 C2 11 2 11 0 13 C-2.9375 13.375 -2.9375 13.375 -6 13 C-8.59814888 10.74827097 -8.95716454 9.34982295 -9.375 5.9375 C-9 3 -9 3 -7.875 1.125 C-5.15781176 -0.50531294 -3.10347254 -0.33015665 0 0 Z " fill="#F1F1F1" transform="translate(803,524)"/>
<path d="M0 0 C1.875 1.125 1.875 1.125 3 3 C3.39365568 6.14924548 3.52854531 8.11909116 1.875 10.875 C-0.91106042 12.54663625 -2.81988862 12.46376624 -6 12 C-8.35210784 9.88310295 -8.91810953 8.55958485 -9.375 5.4375 C-9 3 -9 3 -7.875 1.1875 C-5.12844028 -0.55198782 -3.18153026 -0.39769128 0 0 Z " fill="#282828" transform="translate(585,561)"/>
<path d="M0 0 C2.2855347 2.12791162 2.92303658 3.47408328 3.375 6.5625 C3 9 3 9 1.875 10.8125 C-0.87155972 12.55198782 -2.81846974 12.39769128 -6 12 C-7.875 10.875 -7.875 10.875 -9 9 C-9.4375 6 -9.4375 6 -9 3 C-6.32394643 0.02660715 -3.92616393 -0.70469609 0 0 Z " fill="#2A2A2A" transform="translate(574,573)"/>
<path d="M0 0 C3.60964568 0 5.72921858 0.03087958 9 1 C7.02 1.99 7.02 1.99 5 3 C5.33 3.99 5.66 4.98 6 6 C5.91232913 8.74607776 5.77043265 11.45091508 5.5625 14.1875 C5.51029297 14.93708984 5.45808594 15.68667969 5.40429688 16.45898438 C5.27486216 18.30637082 5.13813482 20.15324371 5 22 C3.35 22 1.7 22 0 22 C0 14.74 0 7.48 0 0 Z " fill="#3D3D3D" transform="translate(1031,520)"/>
<path d="M0 0 C4.15279896 -0.4152799 7.04848801 -0.41253023 10.4375 2.0625 C13 5 13 5 13 12 C8.05 12 3.1 12 -2 12 C-2.33 12.66 -2.66 13.32 -3 14 C-4 11 -4 11 -3.0625 8.8125 C-2.711875 8.214375 -2.36125 7.61625 -2 7 C-2 7.66 -2 8.32 -2 9 C1.63 9 5.26 9 9 9 C8.67 8.01 8.34 7.02 8 6 C5.90280128 4.97718482 5.90280128 4.97718482 3.4375 4.3125 C2.61121094 4.06113281 1.78492188 3.80976562 0.93359375 3.55078125 C0.29550781 3.36902344 -0.34257813 3.18726563 -1 3 C-0.67 2.01 -0.34 1.02 0 0 Z M-2 3 C-1.67 3.66 -1.34 4.32 -1 5 C-1.66 4.67 -2.32 4.34 -3 4 C-2.67 3.67 -2.34 3.34 -2 3 Z " fill="#2E2D2C" transform="translate(1060,520)"/>
<path d="M0 0 C1.32 0 2.64 0 4 0 C4 9.57 4 19.14 4 29 C2.68 29 1.36 29 0 29 C0 19.43 0 9.86 0 0 Z " fill="#1D1C1C" transform="translate(949,512)"/>
<path d="M0 0 C3.63 0 7.26 0 11 0 C11 0.66 11 1.32 11 2 C8.69 2.33 6.38 2.66 4 3 C3.67 6.3 3.34 9.6 3 13 C8.445 12.505 8.445 12.505 14 12 C13.67 12.66 13.34 13.32 13 14 C12.34 14 11.68 14 11 14 C11 14.66 11 15.32 11 16 C7.04 16.495 7.04 16.495 3 17 C2.67 19.97 2.34 22.94 2 26 C1.34 26 0.68 26 0 26 C0 17.42 0 8.84 0 0 Z " fill="#1D1C1C" transform="translate(1091,514)"/>
<path d="M0 0 C1.60875 -0.04125 3.2175 -0.0825 4.875 -0.125 C5.77992187 -0.14820313 6.68484375 -0.17140625 7.6171875 -0.1953125 C10 0 10 0 12 2 C12.35928679 4.80243693 12.48891217 6.34292696 10.7734375 8.6484375 C8.47822234 10.39765434 7.16269248 10.31142141 4.3125 10.1875 C2.889375 10.125625 1.46625 10.06375 0 10 C0 6.7 0 3.4 0 0 Z " fill="#E8E8E7" transform="translate(1094,517)"/>
<path d="M0 0 C2 2 2 2 2.375 4.9375 C2 8 2 8 0.3125 9.875 C-2.38644947 11.18800244 -4.03444993 11.39020396 -7 11 C-9 9 -9 9 -9.3125 5.5625 C-9 2 -9 2 -7.875 0 C-5.01126853 -1.52732345 -3.04699809 -0.84278671 0 0 Z " fill="#202020" transform="translate(615,572)"/>
<path d="M0 0 C2.875 0.6875 2.875 0.6875 3.875 1.6875 C4.3376087 7.93271739 4.3376087 7.93271739 2.6875 10.625 C0.18719126 12.09069823 -1.27630656 12.18602135 -4.125 11.6875 C-6 10.0625 -6 10.0625 -7.125 7.6875 C-7 4.5625 -7 4.5625 -6.125 1.6875 C-3.125 -0.3125 -3.125 -0.3125 0 0 Z " fill="#282727" transform="translate(599.125,561.3125)"/>
<path d="M0 0 C-0.33 1.98 -0.66 3.96 -1 6 C1.97 6 4.94 6 8 6 C7.67 6.99 7.34 7.98 7 9 C3.7 9 0.4 9 -3 9 C-3.66 11.31 -4.32 13.62 -5 16 C-6.65 16 -8.3 16 -10 16 C-9.48007376 10.80073761 -7.84961927 6.36286536 -5 2 C-2 0 -2 0 0 0 Z " fill="#272626" transform="translate(835,525)"/>
<path d="M0 0 C1.65 0 3.3 0 5 0 C5 6.93 5 13.86 5 21 C3.35 21 1.7 21 0 21 C0 14.07 0 7.14 0 0 Z " fill="#2A2929" transform="translate(880,520)"/>
<path d="M0 0 C1.65 0 3.3 0 5 0 C5 6.93 5 13.86 5 21 C3.35 21 1.7 21 0 21 C0 14.07 0 7.14 0 0 Z " fill="#272626" transform="translate(756,520)"/>
<path d="M0 0 C4.95 0 9.9 0 15 0 C15 0.66 15 1.32 15 2 C10.71 2 6.42 2 2 2 C2 10.58 2 19.16 2 28 C2.66 28 3.32 28 4 28 C4 25.03 4 22.06 4 19 C4.33 19 4.66 19 5 19 C5 22.3 5 25.6 5 29 C3.35 29 1.7 29 0 29 C0 19.43 0 9.86 0 0 Z " fill="#303030" transform="translate(1089,512)"/>
<path d="M0 0 C3.62493334 -0.05787784 7.24974857 -0.0935542 10.875 -0.125 C11.90753906 -0.14175781 12.94007812 -0.15851562 14.00390625 -0.17578125 C14.99003906 -0.18222656 15.97617188 -0.18867187 16.9921875 -0.1953125 C18.35899658 -0.21102295 18.35899658 -0.21102295 19.75341797 -0.22705078 C22 0 22 0 24 2 C19.545 2.495 19.545 2.495 15 3 C15 3.33 15 3.66 15 4 C11.50001799 4.02934711 8.00006821 4.04691445 4.5 4.0625 C3.02660156 4.07506836 3.02660156 4.07506836 1.5234375 4.08789062 C-4.08674757 4.10659124 -9.45150899 3.838879 -15 3 C-15 2.67 -15 2.34 -15 2 C-10.05 1.67 -5.1 1.34 0 1 C0 0.67 0 0.34 0 0 Z " fill="#1F1F1F" transform="translate(1100,574)"/>
<path d="M0 0 C0.66 0.66 1.32 1.32 2 2 C2.66 1.67 3.32 1.34 4 1 C4 5.95 4 10.9 4 16 C0 15 0 15 -2 14 C-1.67 12.02 -1.34 10.04 -1 8 C-3.31 7.67 -5.62 7.34 -8 7 C-7.34 6.01 -6.68 5.02 -6 4 C-2.875 3.8125 -2.875 3.8125 0 4 C0 2.68 0 1.36 0 0 Z " fill="#1A1919" transform="translate(1138,525)"/>
<path d="M0 0 C2.45685425 0.42359556 3.6964912 0.65510363 5.375 2.5625 C7.00772941 4.2948946 7.00772941 4.2948946 9.9375 4.25 C12.43947508 4.04575714 14.61091345 3.73510355 17 3 C17.33 4.32 17.66 5.64 18 7 C13.85663672 9.00890341 10.5853527 9.56311349 6 9 C3.42707353 7.58376196 2.05861171 6.20924184 0 4 C0 2.68 0 1.36 0 0 Z " fill="#323131" transform="translate(1169,533)"/>
<path d="M0 0 C1.65 0 3.3 0 5 0 C6.98 5.28 8.96 10.56 11 16 C8.03 15.505 8.03 15.505 5 15 C3.3203125 12.3828125 3.3203125 12.3828125 2.125 9.125 C1.71507812 8.05507813 1.30515625 6.98515625 0.8828125 5.8828125 C0 3 0 3 0 0 Z " fill="#343333" transform="translate(630,520)"/>
<path d="M0 0 C1.65 0 3.3 0 5 0 C5.86366822 1.78710586 6.71568594 3.5798465 7.5625 5.375 C8.27599609 6.87160156 8.27599609 6.87160156 9.00390625 8.3984375 C9.33261719 9.25695312 9.66132812 10.11546875 10 11 C9.33333333 12.33333333 8.66666667 13.66666667 8 15 C7.64830932 16.32860925 7.31229724 17.66158328 7 19 C6.01761592 16.58459694 5.03899782 14.16778178 4.0625 11.75 C3.64581055 10.72712891 3.64581055 10.72712891 3.22070312 9.68359375 C1.93024244 6.48076362 0.78199956 3.36162466 0 0 Z " fill="#353434" transform="translate(692,520)"/>
<path d="M0 0 C1.65 0 3.3 0 5 0 C5 0.66 5 1.32 5 2 C4.01 2 3.02 2 2 2 C2 7.94 2 13.88 2 20 C2.66 20 3.32 20 4 20 C4 15.38 4 10.76 4 6 C4.33 6 4.66 6 5 6 C5 11.28 5 16.56 5 22 C3.35 22 1.7 22 0 22 C0 14.74 0 7.48 0 0 Z " fill="#454545" transform="translate(766,520)"/>
<path d="M0 0 C5.32807504 0.44992634 9.91516137 1.30505379 15 3 C17.99141034 3.44426886 20.98697087 3.74556643 24 4 C24 4.33 24 4.66 24 5 C21.14628312 5.25064392 18.29416526 5.47597763 15.4375 5.6875 C14.63763672 5.76033203 13.83777344 5.83316406 13.01367188 5.90820312 C7.44835189 6.29436819 3.95472684 5.58709898 -1 3 C-0.67 2.01 -0.34 1.02 0 0 Z " fill="#1A1A1A" transform="translate(361,576)"/>
<path d="M0 0 C0 0.99 0 1.98 0 3 C-1.11375 3.12375 -2.2275 3.2475 -3.375 3.375 C-7.03103677 3.6465813 -7.03103677 3.6465813 -9 6 C-9.46486718 9.12196336 -9.46486718 9.12196336 -9.625 12.625 C-9.69976563 13.81351563 -9.77453125 15.00203125 -9.8515625 16.2265625 C-9.90054688 17.14179687 -9.94953125 18.05703125 -10 19 C-10.66 19 -11.32 19 -12 19 C-12 13.06 -12 7.12 -12 1 C-7.76358987 0.15271797 -4.27587998 -0.08384078 0 0 Z " fill="#222221" transform="translate(780,521)"/>
<path d="M0 0 C7.74450098 -0.24328275 15.51609287 -0.27465845 23 2 C23.33 2.66 23.66 3.32 24 4 C15.60995285 4.13605482 7.35619957 3.75475351 -1 3 C-0.67 2.01 -0.34 1.02 0 0 Z " fill="#1E1E1F" transform="translate(1137,577)"/>
<path d="M0 0 C2.56529454 1.28264727 2.66499863 2.22772349 3.625 4.875 C3.88539063 5.57367187 4.14578125 6.27234375 4.4140625 6.9921875 C5 9 5 9 5 12 C2.03 12 -0.94 12 -4 12 C-3.33501617 7.61110675 -1.81242323 4.0188515 0 0 Z " fill="#E3E3E3" transform="translate(838,519)"/>
<path d="M0 0 C1.98 0 3.96 0 6 0 C6 0.33 6 0.66 6 1 C4.35 1 2.7 1 1 1 C0.34 2.98 -0.32 4.96 -1 7 C-0.01 7.33 0.98 7.66 2 8 C1.34 9.98 0.68 11.96 0 14 C-1.98 14.33 -3.96 14.66 -6 15 C-4.36041242 9.76727367 -2.61047965 4.84803364 0 0 Z " fill="#3E3E3E" transform="translate(836,512)"/>
<path d="M0 0 C0.33 0 0.66 0 1 0 C1.33 4.62 1.66 9.24 2 14 C2.33 14 2.66 14 3 14 C3 18.62 3 23.24 3 28 C2.01 28 1.02 28 0 28 C0 18.76 0 9.52 0 0 Z " fill="#1A1919" transform="translate(733,513)"/>
<path d="M0 0 C0.66 0.66 1.32 1.32 2 2 C1.34 2 0.68 2 0 2 C-0.33 2.99 -0.66 3.98 -1 5 C-2.093125 4.979375 -3.18625 4.95875 -4.3125 4.9375 C-7.94384191 4.81455548 -7.94384191 4.81455548 -11 6 C-11.33 4.68 -11.66 3.36 -12 2 C-8.07925671 -0.61382886 -4.55488983 -0.29386386 0 0 Z " fill="#292827" transform="translate(938,520)"/>
<path d="M0 0 C1.134375 0.020625 2.26875 0.04125 3.4375 0.0625 C4.0625 1.9375 4.0625 1.9375 4.4375 4.0625 C2.4375 6.0625 2.4375 6.0625 -0.6875 6.1875 C-2.110625 6.125625 -2.110625 6.125625 -3.5625 6.0625 C-3.94468767 4.40635343 -4.27645102 2.73792976 -4.5625 1.0625 C-3.5625 0.0625 -3.5625 0.0625 0 0 Z " fill="#E8E8E8" transform="translate(1133.5625,531.9375)"/>
<path d="M0 0 C0.33 0.66 0.66 1.32 1 2 C4.96 2 8.92 2 13 2 C13 2.66 13 3.32 13 4 C13.99 3.67 14.98 3.34 16 3 C16 3.66 16 4.32 16 5 C11.05 5 6.1 5 1 5 C0.67 5.66 0.34 6.32 0 7 C-1.04449911 3.86650268 -0.93423645 3.01031744 0 0 Z " fill="#171717" transform="translate(1057,527)"/>
<path d="M0 0 C0.99 0.33 1.98 0.66 3 1 C3 5.95 3 10.9 3 16 C1.68 15.67 0.36 15.34 -1 15 C-0.67 10.05 -0.34 5.1 0 0 Z " fill="#1B1A1A" transform="translate(857,525)"/>
<path d="M0 0 C1.65 0 3.3 0 5 0 C4.45276317 3.37462715 3.9451 5.08235 2 8 C-0.625 9.1875 -0.625 9.1875 -3 10 C-2.01 6.7 -1.02 3.4 0 0 Z " fill="#323232" transform="translate(708,521)"/>
<path d="M0 0 C0.33 0.99 0.66 1.98 1 3 C0.071875 3.598125 -0.85625 4.19625 -1.8125 4.8125 C-4.20254718 6.45272845 -6.08470253 7.8718917 -8 10 C-8 9.01 -8 8.02 -8 7 C-8.99 7.495 -8.99 7.495 -10 8 C-9.16513153 2.15592068 -5.85032849 -0.6500365 0 0 Z " fill="#242525" transform="translate(1010,513)"/>
<path d="M0 0 C1.134375 0.020625 2.26875 0.04125 3.4375 0.0625 C3.4375 1.3825 3.4375 2.7025 3.4375 4.0625 C1.4375 6.0625 1.4375 6.0625 -1.1875 6.1875 C-1.97125 6.14625 -2.755 6.105 -3.5625 6.0625 C-3.94468767 4.40635343 -4.27645102 2.73792976 -4.5625 1.0625 C-3.5625 0.0625 -3.5625 0.0625 0 0 Z " fill="#EBEBEC" transform="translate(934.5625,531.9375)"/>
<path d="M0 0 C0.33 0 0.66 0 1 0 C1 1.98 1 3.96 1 6 C-3.62 6 -8.24 6 -13 6 C-12.34 5.01 -11.68 4.02 -11 3 C-8.8359375 2.70703125 -8.8359375 2.70703125 -6.375 2.8125 C-5.55773438 2.83957031 -4.74046875 2.86664062 -3.8984375 2.89453125 C-2.95871094 2.94673828 -2.95871094 2.94673828 -2 3 C-1.67 2.34 -1.34 1.68 -1 1 C-0.67 0.67 -0.34 0.34 0 0 Z " fill="#171716" transform="translate(1186,526)"/>
<path d="M0 0 C3.0625 0.1875 3.0625 0.1875 5.0625 2.1875 C5.0625 3.1775 5.0625 4.1675 5.0625 5.1875 C1.7625 5.1875 -1.5375 5.1875 -4.9375 5.1875 C-3.69966216 0.23614865 -3.69966216 0.23614865 0 0 Z " fill="#E4E4E4" transform="translate(1177.9375,523.8125)"/>
<path d="M0 0 C0.6875 1.8125 0.6875 1.8125 1 4 C-0.0625 5.75 -0.0625 5.75 -2 7 C-5.0625 7.3125 -5.0625 7.3125 -8 7 C-8.66 6.34 -9.32 5.68 -10 5 C-7.3401439 1.55783328 -4.09711714 1.00495326 0 0 Z " fill="#E4E4E5" transform="translate(804,539)"/>
<path d="M0 0 C3.375 -0.125 3.375 -0.125 7 0 C9 2 9 2 9 5 C5.7 5 2.4 5 -1 5 C-0.67 3.35 -0.34 1.7 0 0 Z " fill="#DADADA" transform="translate(930,524)"/>
<path d="M0 0 C2.33944736 0.28730055 4.6739143 0.61936779 7 1 C7.33 2.32 7.66 3.64 8 5 C4.7 5 1.4 5 -2 5 C-1 1 -1 1 0 0 Z " fill="#E4E4E4" transform="translate(1061,524)"/>
<path d="M0 0 C2.625 0.25 2.625 0.25 4.4375 1.625 C5.625 3.25 5.625 3.25 5.625 5.25 C1.995 5.25 -1.635 5.25 -5.375 5.25 C-2.90277778 0.30555556 -2.90277778 0.30555556 0 0 Z " fill="#E4E4E4" transform="translate(663.375,523.75)"/>
<path d="M0 0 C1.65 0 3.3 0 5 0 C4.25 5.75 4.25 5.75 2 8 C1.34 8 0.68 8 0 8 C-0.33 8.66 -0.66 9.32 -1 10 C-1.66 10 -2.32 10 -3 10 C-2.01 6.7 -1.02 3.4 0 0 Z " fill="#363535" transform="translate(646,520)"/>
<path d="M0 0 C1.65 0 3.3 0 5 0 C5.6875 2.3125 5.6875 2.3125 6 5 C4.5625 6.8125 4.5625 6.8125 3 8 C0.525 7.01 0.525 7.01 -2 6 C-1.34 4.02 -0.68 2.04 0 0 Z " fill="#282626" transform="translate(837,513)"/>
<path d="M0 0 C0.66 0.33 1.32 0.66 2 1 C2.33 1.99 2.66 2.98 3 4 C0.89110738 7.82724957 -0.79609368 10.49860488 -5 12 C-4.58525633 6.71201818 -3.64775386 3.88309282 0 0 Z M0 2 C-0.33 2.66 -0.66 3.32 -1 4 C-0.34 4 0.32 4 1 4 C0.67 3.34 0.34 2.68 0 2 Z " fill="#313231" transform="translate(1058,521)"/>
<path d="M0 0 C0.99 0.33 1.98 0.66 3 1 C3 5.62 3 10.24 3 15 C2.01 15 1.02 15 0 15 C0 10.05 0 5.1 0 0 Z " fill="#1C1B1C" transform="translate(917,526)"/>
<path d="M0 0 C1.65 0 3.3 0 5 0 C5 0.66 5 1.32 5 2 C5.99 1.34 6.98 0.68 8 0 C9.32 0 10.64 0 12 0 C12 1.65 12 3.3 12 5 C9.69 5.66 7.38 6.32 5 7 C4 4 4 4 4 1 C2.68 0.67 1.36 0.34 0 0 Z " fill="#444342" transform="translate(678,520)"/>
<path d="M0 0 C1.62463842 -0.05395478 3.24978541 -0.09277195 4.875 -0.125 C5.77992188 -0.14820313 6.68484375 -0.17140625 7.6171875 -0.1953125 C10 0 10 0 12 2 C12.125 4.625 12.125 4.625 12 7 C10.37061226 6.40776866 8.74658872 5.80076372 7.125 5.1875 C5.76761719 4.68283203 5.76761719 4.68283203 4.3828125 4.16796875 C2 3 2 3 0 0 Z " fill="#313130" transform="translate(1007,512)"/>
<path d="M0 0 C0.33 1.32 0.66 2.64 1 4 C-2.51187196 6.40814077 -4.72656908 7.36629408 -9 7 C-9.33 6.34 -9.66 5.68 -10 5 C-8.35 4.67 -6.7 4.34 -5 4 C-6.32 3.34 -7.64 2.68 -9 2 C-2.25 0 -2.25 0 0 0 Z " fill="#3E3E3E" transform="translate(1164,535)"/>
<path d="M0 0 C0.99 0.66 1.98 1.32 3 2 C0.69 4.64 -1.62 7.28 -4 10 C-6 8 -6 8 -7 5 C-6.030625 4.360625 -5.06125 3.72125 -4.0625 3.0625 C-1.23963731 1.3034741 -1.23963731 1.3034741 0 0 Z " fill="#1A1A1B" transform="translate(342,369)"/>
<path d="M0 0 C0.515625 0.37125 1.03125 0.7425 1.5625 1.125 C-0.14578921 3.23133718 -0.95898416 4.06301608 -3.69921875 4.41796875 C-4.49972656 4.38316406 -5.30023437 4.34835937 -6.125 4.3125 C-6.93324219 4.28542969 -7.74148438 4.25835938 -8.57421875 4.23046875 C-9.18910156 4.19566406 -9.80398438 4.16085937 -10.4375 4.125 C-10.1075 3.135 -9.7775 2.145 -9.4375 1.125 C-3.46184337 -1.242713 -3.46184337 -1.242713 0 0 Z " fill="#252525" transform="translate(1071.4375,536.875)"/>
<path d="M0 0 C2.3773161 2.3773161 2.67028521 3.70285207 3 7 C2.34 7.66 1.68 8.32 1 9 C0.67 10.32 0.34 11.64 0 13 C-1.32 9.04 -2.64 5.08 -4 1 C-2.68 1.33 -1.36 1.66 0 2 C0 1.34 0 0.68 0 0 Z " fill="#3E3D3D" transform="translate(699,526)"/>
<path d="M0 0 C-0.639375 0.28875 -1.27875 0.5775 -1.9375 0.875 C-4.15206079 1.82823451 -4.15206079 1.82823451 -5 4 C-6.9375 5.0625 -6.9375 5.0625 -9 6 C-9.99 6.495 -9.99 6.495 -11 7 C-11 6.01 -11 5.02 -11 4 C-11.99 3.67 -12.98 3.34 -14 3 C-12.42274653 2.29866401 -10.83788667 1.614417 -9.25 0.9375 C-7.92742187 0.36322266 -7.92742187 0.36322266 -6.578125 -0.22265625 C-3.84743691 -1.04600008 -2.63098653 -0.9773992 0 0 Z " fill="#2E2E2E" transform="translate(370,354)"/>
<path d="M0 0 C2.3828125 -0.29296875 2.3828125 -0.29296875 5.125 -0.1875 C6.03507813 -0.16042969 6.94515625 -0.13335938 7.8828125 -0.10546875 C8.58148437 -0.07066406 9.28015625 -0.03585937 10 0 C10 0.66 10 1.32 10 2 C10.66 2.33 11.32 2.66 12 3 C7.38 3 2.76 3 -2 3 C-1.34 2.01 -0.68 1.02 0 0 Z " fill="#141313" transform="translate(661,529)"/>
<path d="M0 0 C2.35964273 0.40683495 3.85934088 0.89814339 5.8125 2.3125 C7 4 7 4 6.6875 6.1875 C6.460625 6.785625 6.23375 7.38375 6 8 C3.53199953 6.84826645 1.95216435 5.95216435 0 4 C0 2.68 0 1.36 0 0 Z " fill="#232221" transform="translate(1169,533)"/>
<path d="M0 0 C1.65 1.32 3.3 2.64 5 4 C4.67 5.65 4.34 7.3 4 9 C3.01 9 2.02 9 1 9 C0.67 9.99 0.34 10.98 0 12 C-0.66 12 -1.32 12 -2 12 C-1.34 8.04 -0.68 4.08 0 0 Z " fill="#333333" transform="translate(562,533)"/>
<path d="M0 0 C2.875 -0.125 2.875 -0.125 6 0 C8 2 8 2 8 5 C5.36 5 2.72 5 0 5 C0 3.35 0 1.7 0 0 Z " fill="#E1E1E1" transform="translate(1130,524)"/>
<path d="M0 0 C1.65 0 3.3 0 5 0 C5.625 1.875 5.625 1.875 6 4 C5.34 4.66 4.68 5.32 4 6 C1.9375 5.8125 1.9375 5.8125 0 5 C-0.33 4.01 -0.66 3.02 -1 2 C-0.67 1.34 -0.34 0.68 0 0 Z " fill="#383736" transform="translate(1192,536)"/>
<path d="M0 0 C1.65 0 3.3 0 5 0 C4.75 3.375 4.75 3.375 4 7 C2.02 7.99 2.02 7.99 0 9 C0 6.03 0 3.06 0 0 Z " fill="#212121" transform="translate(1147,526)"/>
<path d="M0 0 C0.969375 0.12375 1.93875 0.2475 2.9375 0.375 C3.5975 1.365 4.2575 2.355 4.9375 3.375 C4.6075 4.035 4.2775 4.695 3.9375 5.375 C0.6375 4.715 -2.6625 4.055 -6.0625 3.375 C-3.0625 0.375 -3.0625 0.375 0 0 Z " fill="#282726" transform="translate(1160.0625,520.625)"/>
<path d="M0 0 C0.66 0 1.32 0 2 0 C2 0.99 2 1.98 2 3 C2.66 3 3.32 3 4 3 C4 5.64 4 8.28 4 11 C1 10 1 10 -1 8 C-0.96712417 5.27130593 -0.43602229 2.7033382 0 0 Z " fill="#343434" transform="translate(326,391)"/>
<path d="M0 0 C0.94875 0.350625 1.8975 0.70125 2.875 1.0625 C1.885 2.3825 0.895 3.7025 -0.125 5.0625 C-2.765 4.4025 -5.405 3.7425 -8.125 3.0625 C-7.135 2.7325 -6.145 2.4025 -5.125 2.0625 C-5.125 1.4025 -5.125 0.7425 -5.125 0.0625 C-3.125 -0.9375 -3.125 -0.9375 0 0 Z " fill="#303030" transform="translate(531.125,355.9375)"/>
<path d="M0 0 C1.67542976 0.28604898 3.34385343 0.61781233 5 1 C4.67 2.32 4.34 3.64 4 5 C2.68 5.33 1.36 5.66 0 6 C-0.38218767 4.34385343 -0.71395102 2.67542976 -1 1 C-0.67 0.67 -0.34 0.34 0 0 Z " fill="#2F2E2D" transform="translate(979,536)"/>
<path d="M0 0 C0 0.99 0 1.98 0 3 C-2.31 3.33 -4.62 3.66 -7 4 C-7.33 2.68 -7.66 1.36 -8 0 C-5.13822943 -1.43088528 -3.06624227 -0.59991697 0 0 Z " fill="#DFE0E0" transform="translate(970,534)"/>
<path d="M0 0 C1.98 0.495 1.98 0.495 4 1 C4 2.65 4 4.3 4 6 C2.35 5.67 0.7 5.34 -1 5 C-0.67 3.35 -0.34 1.7 0 0 Z " fill="#312F2F" transform="translate(881,511)"/>
<path d="M0 0 C1.5625 1.25 1.5625 1.25 3 3 C2.9375 5.0625 2.9375 5.0625 2 7 C-0.0625 8.25 -0.0625 8.25 -2 9 C-2.33 6.36 -2.66 3.72 -3 1 C-2.34 1.66 -1.68 2.32 -1 3 C-0.67 2.01 -0.34 1.02 0 0 Z " fill="#2D2C2C" transform="translate(563,388)"/>
<path d="M0 0 C1.4540625 0.0309375 1.4540625 0.0309375 2.9375 0.0625 C3.2675 1.3825 3.5975 2.7025 3.9375 4.0625 C-0.0225 3.7325 -3.9825 3.4025 -8.0625 3.0625 C-6.7425 2.4025 -5.4225 1.7425 -4.0625 1.0625 C-3.0625 0.0625 -3.0625 0.0625 0 0 Z " fill="#181919" transform="translate(520.0625,577.9375)"/>
<path d="M0 0 C0.99 0 1.98 0 3 0 C4.0625 1.875 4.0625 1.875 5 4 C4.67 4.66 4.34 5.32 4 6 C2.35 6 0.7 6 -1 6 C-0.67 4.02 -0.34 2.04 0 0 Z " fill="#302F2E" transform="translate(826,535)"/>
<path d="M0 0 C0.66 0 1.32 0 2 0 C1.25 5.75 1.25 5.75 -1 8 C-1.99 7.34 -2.98 6.68 -4 6 C-3.67 5.01 -3.34 4.02 -3 3 C-2.34 3 -1.68 3 -1 3 C-0.67 2.01 -0.34 1.02 0 0 Z " fill="#282828" transform="translate(646,527)"/>
<path d="M0 0 C1.98 0.495 1.98 0.495 4 1 C3.67 2.65 3.34 4.3 3 6 C1.68 5.67 0.36 5.34 -1 5 C-0.67 3.35 -0.34 1.7 0 0 Z " fill="#2B2A2A" transform="translate(757,511)"/>
<path d="M0 0 C2.64 0.33 5.28 0.66 8 1 C4.55549263 3.29633824 2.06187717 3.54016485 -2 4 C-2 3.34 -2 2.68 -2 2 C-1.34 2 -0.68 2 0 2 C0 1.34 0 0.68 0 0 Z " fill="#3D3D3C" transform="translate(1131,538)"/>
<path d="M0 0 C2.1640625 -0.29296875 2.1640625 -0.29296875 4.625 -0.1875 C5.44226563 -0.16042969 6.25953125 -0.13335938 7.1015625 -0.10546875 C8.04128906 -0.05326172 8.04128906 -0.05326172 9 0 C8.67 0.99 8.34 1.98 8 3 C4.7 3 1.4 3 -2 3 C-1.34 2.01 -0.68 1.02 0 0 Z " fill="#1C1C1B" transform="translate(834,531)"/>
<path d="M0 0 C1.65 0 3.3 0 5 0 C4.67 1.65 4.34 3.3 4 5 C1.69 5 -0.62 5 -3 5 C-3 4.34 -3 3.68 -3 3 C-1.02 3 0.96 3 3 3 C3 2.34 3 1.68 3 1 C2.01 0.67 1.02 0.34 0 0 Z " fill="#5A5A5A" transform="translate(724,537)"/>
<path d="M0 0 C-0.66 1.32 -1.32 2.64 -2 4 C-4.31 4 -6.62 4 -9 4 C-9 3.34 -9 2.68 -9 2 C-3.375 0 -3.375 0 0 0 Z " fill="#343434" transform="translate(938,538)"/>
<path d="M0 0 C2 3 2 3 3 6 C2.01 6.99 1.02 7.98 0 9 C-2 7 -2 7 -2.25 4.5 C-2 2 -2 2 0 0 Z " fill="#282727" transform="translate(960,522)"/>
<path d="M0 0 C0.79921875 0.01804687 1.5984375 0.03609375 2.421875 0.0546875 C3.02515625 0.07789063 3.6284375 0.10109375 4.25 0.125 C4.25 0.455 4.25 0.785 4.25 1.125 C1.94 1.125 -0.37 1.125 -2.75 1.125 C-2.75 1.785 -2.75 2.445 -2.75 3.125 C-3.74 3.455 -4.73 3.785 -5.75 4.125 C-6.41 4.785 -7.07 5.445 -7.75 6.125 C-8.08 4.805 -8.41 3.485 -8.75 2.125 C-5.68753253 0.34090198 -3.52920727 -0.10380021 0 0 Z " fill="#434342" transform="translate(1133.75,519.875)"/>
<path d="M0 0 C0.99 0.33 1.98 0.66 3 1 C1.25 5.875 1.25 5.875 -1 7 C-1.66 6.34 -2.32 5.68 -3 5 C-2.75 2.9375 -2.75 2.9375 -2 1 C-1.34 0.67 -0.68 0.34 0 0 Z " fill="#383837" transform="translate(795,520)"/>
<path d="M0 0 C2.31 0 4.62 0 7 0 C7.33 0.99 7.66 1.98 8 3 C5.03 3 2.06 3 -1 3 C-0.67 2.01 -0.34 1.02 0 0 Z " fill="#161616" transform="translate(1137,577)"/>
<path d="M0 0 C1.65 0 3.3 0 5 0 C4.01 0.495 4.01 0.495 3 1 C3 1.66 3 2.32 3 3 C4.9600281 4.63676257 4.9600281 4.63676257 7 6 C1.25 5.125 1.25 5.125 -1 4 C-0.67 2.68 -0.34 1.36 0 0 Z " fill="#434242" transform="translate(962,528)"/>
<path d="M0 0 C0.66 0.33 1.32 0.66 2 1 C2.33 1.99 2.66 2.98 3 4 C1.5625 6.1875 1.5625 6.1875 0 8 C0 7.34 0 6.68 0 6 C-0.99 5.67 -1.98 5.34 -3 5 C-1.125 1.125 -1.125 1.125 0 0 Z M0 2 C-0.33 2.66 -0.66 3.32 -1 4 C-0.34 4 0.32 4 1 4 C0.67 3.34 0.34 2.68 0 2 Z " fill="#383838" transform="translate(1058,521)"/>
<path d="M0 0 C1.32 0.66 2.64 1.32 4 2 C3.01 2.99 2.02 3.98 1 5 C-0.32 4.34 -1.64 3.68 -3 3 C-2.01 2.01 -1.02 1.02 0 0 Z " fill="#2A2929" transform="translate(669,536)"/>
<path d="M0 0 C6.0546875 -0.1953125 6.0546875 -0.1953125 8 0 C8.66 0.66 9.32 1.32 10 2 C9.34 2 8.68 2 8 2 C7.67 2.99 7.34 3.98 7 5 C5.68 4.34 4.36 3.68 3 3 C3.99 3 4.98 3 6 3 C6 2.34 6 1.68 6 1 C4.02 1 2.04 1 0 1 C0 0.67 0 0.34 0 0 Z " fill="#353534" transform="translate(930,520)"/>
<path d="M0 0 C2.97 0.495 2.97 0.495 6 1 C6 1.66 6 2.32 6 3 C3.36 3 0.72 3 -2 3 C-1.34 2.01 -0.68 1.02 0 0 Z " fill="#121111" transform="translate(1132,529)"/>
<path d="M0 0 C1.32 0.66 2.64 1.32 4 2 C2.68 2.99 1.36 3.98 0 5 C-0.66 4.67 -1.32 4.34 -2 4 C-1.34 2.68 -0.68 1.36 0 0 Z " fill="#434243" transform="translate(959,535)"/>
<path d="M0 0 C1.65 0 3.3 0 5 0 C5 1.32 5 2.64 5 4 C2.03 3.505 2.03 3.505 -1 3 C-0.67 2.01 -0.34 1.02 0 0 Z " fill="#1C1A19" transform="translate(965,529)"/>
<path d="M0 0 C0.66 0 1.32 0 2 0 C2 1.98 2 3.96 2 6 C1.34 6 0.68 6 0 6 C0 5.34 0 4.68 0 4 C-0.66 4 -1.32 4 -2 4 C-1 1 -1 1 0 0 Z " fill="#2A2828" transform="translate(671,525)"/>
</svg>
